<svg xmlns="http://www.w3.org/2000/svg" width="233" height="319" fill="none"><path fill="#000" d="m15.065 148-5.699-21.475h2.915l3.267 14.078c.351 1.474.654 2.939.908 4.394.547-2.295.87-3.618.967-3.97l4.087-14.502h3.427l3.077 10.87c.771 2.695 1.328 5.229 1.67 7.602.273-1.357.63-2.915 1.069-4.673l3.37-13.799h2.855L31.09 148h-2.74l-4.526-16.362c-.38-1.367-.605-2.207-.674-2.52a52.698 52.698 0 0 1-.63 2.52L17.965 148h-2.9Zm24.667 0v-21.475h2.842v8.819h11.162v-8.819h2.842V148h-2.842v-10.122H42.574V148h-2.842Zm21.636 0v-21.475h9.522c1.914 0 3.369.196 4.365.586.996.381 1.792 1.06 2.388 2.036.595.977.893 2.056.893 3.238 0 1.523-.493 2.807-1.48 3.852-.986 1.045-2.51 1.709-4.57 1.992.752.362 1.324.718 1.714 1.07.83.762 1.616 1.714 2.359 2.856L80.294 148H76.72l-2.842-4.468c-.83-1.289-1.514-2.275-2.05-2.959-.538-.683-1.021-1.162-1.451-1.435a4.181 4.181 0 0 0-1.29-.572c-.321-.068-.849-.102-1.581-.102H64.21V148h-2.842Zm2.842-11.997h6.108c1.3 0 2.315-.132 3.047-.396.733-.273 1.29-.703 1.67-1.289a3.52 3.52 0 0 0 .571-1.933c0-1.016-.37-1.851-1.113-2.505-.732-.654-1.894-.982-3.486-.982H64.21v7.105Zm30.249 4.966v-2.066c1.113-.009 1.87-.053 2.27-.132.41-.078.796-.312 1.158-.703.361-.39.542-.879.542-1.464 0-.713-.24-1.28-.718-1.7-.469-.429-1.08-.644-1.831-.644-1.484 0-2.524.874-3.12 2.622l-2.505-.41c.781-2.92 2.666-4.38 5.654-4.38 1.66 0 2.96.454 3.897 1.362.947.908 1.421 1.992 1.421 3.252 0 1.27-.616 2.28-1.846 3.032.781.42 1.367.957 1.758 1.612.39.644.586 1.411.586 2.299 0 1.397-.508 2.53-1.524 3.399-1.015.869-2.436 1.304-4.262 1.304-3.545 0-5.601-1.578-6.167-4.732l2.475-.527c.225.996.679 1.767 1.362 2.314a3.728 3.728 0 0 0 2.373.821c.89 0 1.626-.249 2.212-.748a2.428 2.428 0 0 0 .894-1.933c0-.606-.186-1.133-.557-1.582-.37-.449-.766-.728-1.186-.835-.42-.117-1.182-.176-2.285-.176-.088 0-.288.005-.601.015Zm11.733-8.526h10.84v13.389h1.685v6.577h-2.168V148h-12.246v4.409h-2.168v-6.577h1.391c1.856-2.52 2.745-6.982 2.666-13.389Zm2.198 2.183c-.196 5.049-.977 8.784-2.344 11.206h8.364v-11.206h-6.02Zm12.26 5.596c0-2.881.801-5.015 2.403-6.402 1.338-1.152 2.968-1.728 4.892-1.728 2.139 0 3.887.703 5.244 2.109 1.358 1.397 2.037 3.33 2.037 5.801 0 2.002-.303 3.579-.909 4.731a6.317 6.317 0 0 1-2.622 2.666c-1.142.635-2.392.953-3.75.953-2.177 0-3.94-.699-5.288-2.095-1.338-1.397-2.007-3.408-2.007-6.035Zm2.71 0c0 1.992.435 3.486 1.304 4.482.869.986 1.963 1.48 3.281 1.48 1.309 0 2.398-.498 3.267-1.495.869-.996 1.304-2.514 1.304-4.555 0-1.924-.44-3.379-1.319-4.365-.869-.997-1.953-1.495-3.252-1.495-1.318 0-2.412.494-3.281 1.48-.869.986-1.304 2.475-1.304 4.468Zm14.971 13.74v-21.519h2.402v2.022c.567-.791 1.206-1.382 1.919-1.773.713-.4 1.577-.6 2.593-.6 1.328 0 2.5.342 3.516 1.025 1.015.684 1.782 1.651 2.3 2.901.517 1.24.776 2.602.776 4.086 0 1.592-.288 3.028-.864 4.307-.567 1.27-1.397 2.246-2.491 2.93-1.084.674-2.226 1.011-3.427 1.011-.879 0-1.67-.186-2.373-.557a5.406 5.406 0 0 1-1.714-1.406v7.573h-2.637Zm2.388-13.652c0 2.002.405 3.481 1.216 4.438.81.957 1.792 1.436 2.944 1.436 1.172 0 2.173-.494 3.003-1.48.84-.996 1.26-2.534 1.26-4.614 0-1.983-.411-3.467-1.231-4.453-.81-.987-1.782-1.48-2.915-1.48-1.123 0-2.119.528-2.988 1.582-.86 1.045-1.289 2.569-1.289 4.571Zm13.33-.088c0-2.881.801-5.015 2.402-6.402 1.338-1.152 2.969-1.728 4.893-1.728 2.138 0 3.886.703 5.244 2.109 1.357 1.397 2.036 3.33 2.036 5.801 0 2.002-.303 3.579-.908 4.731a6.328 6.328 0 0 1-2.622 2.666c-1.143.635-2.393.953-3.75.953-2.178 0-3.941-.699-5.288-2.095-1.338-1.397-2.007-3.408-2.007-6.035Zm2.71 0c0 1.992.434 3.486 1.303 4.482.87.986 1.963 1.48 3.282 1.48 1.308 0 2.397-.498 3.266-1.495.869-.996 1.304-2.514 1.304-4.555 0-1.924-.439-3.379-1.318-4.365-.869-.997-1.953-1.495-3.252-1.495-1.319 0-2.412.494-3.282 1.48-.869.986-1.303 2.475-1.303 4.468Zm14.985-7.779h6.079c1.494 0 2.603.127 3.325.381.733.244 1.358.698 1.875 1.363.528.664.791 1.459.791 2.387 0 .742-.156 1.392-.468 1.948-.303.547-.762 1.006-1.377 1.377.732.245 1.338.704 1.816 1.377.488.664.733 1.455.733 2.373-.098 1.475-.625 2.569-1.582 3.282-.957.713-2.349 1.069-4.175 1.069h-7.017v-15.557Zm2.637 6.548h2.812c1.123 0 1.895-.058 2.315-.176.42-.117.796-.351 1.128-.703a1.84 1.84 0 0 0 .498-1.289c0-.82-.293-1.391-.879-1.714-.576-.322-1.567-.483-2.974-.483h-2.9v4.365Zm0 6.841h3.472c1.494 0 2.519-.171 3.076-.513.556-.351.849-.952.879-1.801 0-.498-.162-.957-.484-1.377a2.045 2.045 0 0 0-1.26-.806c-.517-.117-1.347-.176-2.49-.176h-3.193v4.673Zm11.953-5.61c0-2.881.801-5.015 2.402-6.402 1.338-1.152 2.969-1.728 4.893-1.728 2.139 0 3.887.703 5.244 2.109 1.357 1.397 2.036 3.33 2.036 5.801 0 2.002-.303 3.579-.908 4.731a6.328 6.328 0 0 1-2.622 2.666c-1.143.635-2.393.953-3.75.953-2.178 0-3.941-.699-5.288-2.095-1.338-1.397-2.007-3.408-2.007-6.035Zm2.71 0c0 1.992.435 3.486 1.304 4.482.869.986 1.963 1.48 3.281 1.48 1.309 0 2.397-.498 3.267-1.495.869-.996 1.303-2.514 1.303-4.555 0-1.924-.439-3.379-1.318-4.365-.869-.997-1.953-1.495-3.252-1.495-1.318 0-2.412.494-3.281 1.48-.869.986-1.304 2.475-1.304 4.468ZM204.938 148v-15.557h2.636V148h-2.636Zm-2.769-18.604v-3.002h2.754v3.002h-2.754Zm5.464 0v-3.002h2.754v3.002h-2.754ZM12.267 163.443h12.246V179H21.89v-13.374h-6.988v7.749c0 1.807-.058 2.998-.176 3.574-.117.576-.439 1.079-.966 1.509-.528.43-1.29.645-2.285.645-.616 0-1.324-.04-2.124-.118v-2.197h1.157c.547 0 .937-.054 1.172-.161a.888.888 0 0 0 .468-.542c.079-.244.118-1.04.118-2.388v-10.254Zm16.26 0h2.636v6.504h3.193c.235-2.226.928-3.926 2.08-5.097 1.163-1.172 2.666-1.758 4.512-1.758 1.572 0 2.813.317 3.72.952.91.635 1.656 1.509 2.242 2.622.596 1.113.894 2.612.894 4.497 0 2.686-.61 4.722-1.831 6.108-1.221 1.387-2.876 2.081-4.966 2.081-1.944 0-3.501-.645-4.673-1.934-1.172-1.289-1.831-3.057-1.978-5.303h-3.193V179h-2.637v-15.557Zm12.568 1.89c-1.29 0-2.295.498-3.018 1.494-.713.986-1.07 2.373-1.07 4.16 0 2.139.362 3.706 1.085 4.702.723.997 1.69 1.495 2.9 1.495 1.201 0 2.183-.459 2.945-1.377.771-.928 1.157-2.417 1.157-4.468 0-2.002-.332-3.501-.996-4.497-.664-1.006-1.665-1.509-3.003-1.509Zm11.308-1.89h10.84v13.389h1.685v6.577H62.76V179H50.514v4.409h-2.168v-6.577h1.391c1.856-2.52 2.744-6.982 2.666-13.389Zm2.198 2.183c-.196 5.049-.977 8.784-2.344 11.206h8.364v-11.206h-6.02Zm13.242-2.183h2.636v11.866l7.31-11.866h2.842V179h-2.637v-11.792L70.684 179h-2.841v-15.557Zm16.772 0h2.637v6.475h7.31v-6.475h2.636V179h-2.636v-6.899h-7.31V179h-2.637v-15.557Zm16.568 0h2.636v11.866l7.31-11.866h2.842V179h-2.637v-11.792L104.024 179h-2.841v-15.557Z"/><path fill="#777" d="M9.967 203.027c0-2.376.638-4.235 1.914-5.576 1.276-1.347 2.923-2.021 4.941-2.021 1.322 0 2.513.315 3.575.947a6.15 6.15 0 0 1 2.421 2.646c.56 1.127.84 2.406.84 3.838 0 1.452-.293 2.751-.879 3.897-.586 1.146-1.416 2.015-2.49 2.607a7.146 7.146 0 0 1-3.477.879c-1.347 0-2.552-.325-3.613-.976a6.286 6.286 0 0 1-2.412-2.666 8.083 8.083 0 0 1-.82-3.575Zm1.953.03c0 1.725.462 3.086 1.387 4.082.93.989 2.096 1.484 3.496 1.484 1.425 0 2.597-.501 3.515-1.504.925-1.002 1.387-2.425 1.387-4.267 0-1.166-.198-2.181-.596-3.047-.39-.873-.966-1.547-1.728-2.022-.755-.482-1.605-.722-2.549-.722-1.341 0-2.497.462-3.467 1.386-.963.918-1.445 2.455-1.445 4.61Zm14.902-3.428h7.227v8.926h1.123v4.384h-1.445V210h-8.164v2.939h-1.446v-4.384h.928c1.237-1.68 1.83-4.655 1.777-8.926Zm1.465 1.455c-.13 3.366-.65 5.856-1.562 7.471H32.3v-7.471h-4.014Zm8.828-1.455h1.758v7.91l4.873-7.91h1.895V210h-1.758v-7.861L39.01 210h-1.895v-10.371Zm11.182 0h1.758v4.316h4.873v-4.316h1.758V210h-1.758v-4.6h-4.873v4.6h-1.758v-10.371Zm16.621-1.924v-2.021h1.758v2.021h-1.758Zm0 12.295v-10.371h1.758V210h-1.758Zm6.738-4.688v-1.376c.742-.007 1.247-.036 1.514-.088.273-.052.53-.209.771-.469.241-.261.362-.586.362-.977 0-.475-.16-.853-.479-1.132-.312-.287-.72-.43-1.22-.43-.99 0-1.683.583-2.08 1.748l-1.67-.274c.52-1.946 1.777-2.919 3.769-2.919 1.107 0 1.973.302 2.598.908.631.605.947 1.328.947 2.168 0 .846-.41 1.52-1.23 2.021.52.28.911.638 1.171 1.074.26.43.391.941.391 1.534 0 .931-.338 1.686-1.016 2.265-.677.58-1.624.869-2.841.869-2.364 0-3.734-1.051-4.112-3.154l1.65-.351c.15.664.453 1.178.909 1.542.462.365.99.547 1.582.547.592 0 1.084-.166 1.475-.498a1.62 1.62 0 0 0 .595-1.289c0-.403-.124-.755-.37-1.054-.248-.3-.512-.485-.792-.557-.28-.078-.788-.117-1.523-.117-.059 0-.192.003-.4.009Zm12.461-5.683h4.053c.996 0 1.735.085 2.217.254.488.163.905.465 1.25.908.351.443.527.973.527 1.592 0 .495-.104.928-.312 1.299-.202.364-.508.67-.918.918.488.162.892.468 1.21.918.326.442.489.97.489 1.582-.065.983-.417 1.712-1.055 2.187-.638.475-1.566.713-2.783.713h-4.678v-10.371Zm1.758 4.365h1.875c.749 0 1.263-.039 1.543-.117.28-.078.53-.234.752-.469.221-.241.332-.527.332-.859 0-.547-.195-.928-.586-1.143-.384-.215-1.045-.322-1.982-.322h-1.934v2.91Zm0 4.561h2.314c.997 0 1.68-.114 2.051-.342.371-.234.567-.635.586-1.201 0-.332-.107-.638-.322-.918a1.361 1.361 0 0 0-.84-.537c-.345-.078-.898-.118-1.66-.118h-2.129v3.116Zm15.723-1.895 1.816.225c-.286 1.061-.817 1.885-1.592 2.47-.774.586-1.764.879-2.969.879-1.516 0-2.72-.465-3.613-1.396-.885-.938-1.328-2.249-1.328-3.936 0-1.744.45-3.099 1.348-4.062.898-.964 2.064-1.445 3.496-1.445 1.387 0 2.519.472 3.398 1.416s1.319 2.272 1.319 3.984c0 .104-.004.26-.01.469h-7.734c.065 1.139.387 2.011.966 2.617.58.605 1.302.908 2.168.908.645 0 1.195-.169 1.651-.508.455-.338.817-.879 1.084-1.621Zm-5.772-2.842h5.791c-.078-.872-.299-1.526-.664-1.963-.56-.677-1.286-1.015-2.178-1.015-.807 0-1.487.27-2.04.81-.547.541-.85 1.263-.909 2.168Zm10-4.189h8.164V210h-1.748v-8.916h-4.658v5.166c0 1.204-.039 1.999-.117 2.383-.078.384-.293.719-.645 1.006-.351.286-.859.429-1.523.429-.41 0-.882-.026-1.416-.078v-1.465h.771c.365 0 .625-.035.782-.107a.593.593 0 0 0 .312-.361c.052-.163.078-.694.078-1.592v-6.836Zm10.791 0h1.758v4.053h2.227c1.451 0 2.568.283 3.349.849.788.56 1.182 1.335 1.182 2.324 0 .866-.329 1.609-.987 2.227-.651.612-1.695.918-3.134.918h-4.395v-10.371Zm1.758 8.926h1.846c1.113 0 1.907-.137 2.383-.41.475-.274.712-.7.712-1.28 0-.449-.175-.849-.527-1.201-.351-.352-1.129-.527-2.334-.527h-2.08v3.418Zm8.75-8.926h2.734l2.725 8.301 3.027-8.301h2.53V210h-1.758v-8.35l-3.067 8.35h-1.572l-2.9-8.75V210h-1.719v-10.371Zm13.701 0h1.758v7.91l4.873-7.91h1.895V210h-1.758v-7.861L142.721 210h-1.895v-10.371Zm-130.498 25h1.758v4.316h4.873v-4.316h1.758V235h-1.758v-4.6h-4.873v4.6h-1.758v-10.371Zm17.813 9.092c-.651.553-1.28.944-1.885 1.172a5.411 5.411 0 0 1-1.934.341c-1.14 0-2.015-.276-2.627-.83-.612-.56-.918-1.272-.918-2.138 0-.508.114-.97.342-1.387.235-.423.537-.762.908-1.016.378-.254.801-.446 1.27-.576.345-.091.866-.179 1.562-.264 1.42-.169 2.465-.371 3.135-.605.007-.241.01-.394.01-.459 0-.716-.166-1.221-.498-1.514-.45-.397-1.117-.595-2.002-.595-.827 0-1.439.146-1.836.439-.39.287-.68.798-.87 1.533l-1.718-.234c.156-.736.414-1.328.772-1.777.358-.456.875-.804 1.552-1.045.677-.248 1.462-.371 2.354-.371.885 0 1.605.104 2.158.312.553.208.96.472 1.22.791.261.313.443.71.548 1.191.058.3.087.84.087 1.622v2.343c0 1.634.036 2.67.108 3.106.078.429.228.843.45 1.24h-1.837a3.73 3.73 0 0 1-.351-1.279Zm-.147-3.926c-.638.26-1.595.482-2.871.664-.723.104-1.234.221-1.533.352a1.516 1.516 0 0 0-.938 1.406c0 .469.176.859.528 1.172.358.312.879.468 1.562.468.677 0 1.28-.146 1.807-.439.527-.3.915-.706 1.162-1.221.189-.397.283-.983.283-1.758v-.644Zm5.899-5.166h7.226v8.926h1.123v4.384h-1.445V235h-8.164v2.939h-1.446v-4.384h.928c1.237-1.68 1.83-4.655 1.778-8.926Zm1.464 1.455c-.13 3.366-.65 5.856-1.562 7.471h5.576v-7.471h-4.014Zm8.838-3.379v-2.021h1.758v2.021h-1.758Zm0 12.295v-10.371h1.758V235h-1.758Zm4.444-10.371h1.758v7.91l4.873-7.91h1.894V235h-1.758v-7.861L50.533 235H48.64v-10.371Zm6.103-3.926h1.201c-.097.814-.397 1.439-.898 1.875-.495.436-1.156.654-1.983.654-.833 0-1.5-.214-2.002-.644-.494-.436-.79-1.065-.888-1.885h1.201c.091.443.27.775.537.996.274.215.638.322 1.094.322.527 0 .924-.104 1.191-.312.274-.215.456-.55.547-1.006Zm5.078 3.926h1.758v4.316h4.873v-4.316h1.758V235h-1.758v-4.6h-4.873v4.6H59.82v-10.371Zm11.045 0h1.758v7.91l4.873-7.91h1.895V235h-1.758v-7.861L72.76 235h-1.895v-10.371Zm10 10.371 3.79-5.391-3.507-4.98h2.198l1.591 2.432c.3.462.54.849.723 1.162.287-.43.55-.811.791-1.143l1.748-2.451h2.1l-3.584 4.883L90.572 235h-2.158l-2.129-3.223-.566-.869L82.994 235h-2.129Zm16.748-10.371h8.184V235h-1.758v-8.916h-4.668V235h-1.758v-10.371Zm10.176 5.185c0-1.92.534-3.343 1.602-4.267.892-.768 1.979-1.152 3.261-1.152 1.426 0 2.591.468 3.496 1.406.905.931 1.358 2.22 1.358 3.867 0 1.335-.202 2.386-.606 3.154a4.22 4.22 0 0 1-1.748 1.778 5.061 5.061 0 0 1-2.5.634c-1.451 0-2.627-.465-3.525-1.396-.892-.931-1.338-2.272-1.338-4.024Zm1.807 0c0 1.329.289 2.325.869 2.989.579.657 1.308.986 2.187.986.873 0 1.599-.332 2.178-.996.58-.664.869-1.676.869-3.037 0-1.283-.293-2.253-.879-2.91-.579-.664-1.302-.996-2.168-.996-.879 0-1.608.328-2.187.986-.58.657-.869 1.65-.869 2.978Zm9.97-5.185h1.758v4.482c.56 0 .951-.107 1.172-.322.228-.215.56-.84.996-1.875.345-.82.625-1.361.84-1.621.215-.26.462-.436.742-.527.28-.092.729-.137 1.348-.137h.351v1.455l-.488-.01c-.462 0-.758.069-.889.205-.136.144-.345.57-.625 1.28-.266.677-.511 1.145-.732 1.406-.221.26-.563.498-1.025.713.755.202 1.497.905 2.226 2.109l1.924 3.213h-1.934l-1.875-3.213c-.384-.644-.719-1.068-1.005-1.269a1.695 1.695 0 0 0-1.026-.313V235h-1.758v-10.371Zm15.977 9.092c-.651.553-1.279.944-1.885 1.172a5.408 5.408 0 0 1-1.933.341c-1.14 0-2.015-.276-2.627-.83-.612-.56-.918-1.272-.918-2.138 0-.508.114-.97.341-1.387.235-.423.538-.762.909-1.016.377-.254.8-.446 1.269-.576.345-.091.866-.179 1.563-.264 1.419-.169 2.464-.371 3.134-.605.007-.241.01-.394.01-.459 0-.716-.166-1.221-.498-1.514-.449-.397-1.116-.595-2.002-.595-.827 0-1.439.146-1.836.439-.39.287-.68.798-.869 1.533l-1.719-.234c.157-.736.414-1.328.772-1.777.358-.456.876-.804 1.553-1.045.677-.248 1.461-.371 2.353-.371.886 0 1.605.104 2.158.312.554.208.961.472 1.221.791.26.313.443.71.547 1.191.059.3.088.84.088 1.622v2.343c0 1.634.036 2.67.107 3.106.078.429.228.843.449 1.24h-1.835a3.712 3.712 0 0 1-.352-1.279Zm-.147-3.926c-.638.26-1.595.482-2.871.664-.722.104-1.233.221-1.533.352a1.518 1.518 0 0 0-.937 1.406c0 .469.175.859.527 1.172.358.312.879.468 1.563.468.677 0 1.279-.146 1.806-.439.528-.3.915-.706 1.162-1.221.189-.397.283-.983.283-1.758v-.644Zm6.573.517v-1.376c.742-.007 1.246-.036 1.513-.088.274-.052.531-.209.772-.469.241-.261.361-.586.361-.977 0-.475-.159-.853-.478-1.132-.313-.287-.72-.43-1.221-.43-.99 0-1.683.583-2.08 1.748l-1.67-.274c.521-1.946 1.777-2.919 3.77-2.919 1.106 0 1.972.302 2.597.908.632.605.947 1.328.947 2.168 0 .846-.41 1.52-1.23 2.021.521.28.911.638 1.172 1.074.26.43.39.941.39 1.534 0 .931-.338 1.686-1.015 2.265-.677.58-1.624.869-2.842.869-2.363 0-3.734-1.051-4.111-3.154l1.65-.351c.15.664.453 1.178.908 1.542.463.365.99.547 1.582.547.593 0 1.084-.166 1.475-.498a1.62 1.62 0 0 0 .596-1.289c0-.403-.124-.755-.371-1.054-.248-.3-.511-.485-.791-.557-.28-.078-.788-.117-1.524-.117-.058 0-.192.003-.4.009Zm6.894-5.683h1.758v4.316h4.873v-4.316h1.758V235h-1.758v-4.6h-4.873v4.6h-1.758v-10.371Zm11.045 0h1.758v7.91l4.873-7.91h1.895V235h-1.758v-7.861L161.803 235h-1.895v-10.371Zm11.162 0h1.758v4.482c.56 0 .951-.107 1.172-.322.228-.215.56-.84.996-1.875.345-.82.625-1.361.84-1.621.215-.26.462-.436.742-.527.28-.092.729-.137 1.348-.137h.351v1.455l-.488-.01c-.462 0-.758.069-.889.205-.136.144-.345.57-.625 1.28-.267.677-.511 1.145-.732 1.406-.221.26-.563.498-1.025.713.755.202 1.497.905 2.226 2.109l1.924 3.213h-1.934l-1.875-3.213c-.384-.644-.719-1.068-1.005-1.269a1.695 1.695 0 0 0-1.026-.313V235h-1.758v-10.371Zm8.77-1.924v-2.021h1.758v2.021h-1.758Zm0 12.295v-10.371h1.758V235h-1.758Zm4.453-10.371h4.053c.996 0 1.735.085 2.216.254.489.163.905.465 1.25.908.352.443.528.973.528 1.592 0 .495-.104.928-.313 1.299-.201.364-.507.67-.918.918.489.162.892.468 1.211.918.326.442.489.97.489 1.582-.066.983-.417 1.712-1.055 2.187-.638.475-1.566.713-2.783.713h-4.678v-10.371Zm1.758 4.365h1.875c.748 0 1.263-.039 1.543-.117.28-.078.53-.234.752-.469.221-.241.332-.527.332-.859 0-.547-.196-.928-.586-1.143-.384-.215-1.045-.322-1.983-.322h-1.933v2.91Zm0 4.561h2.314c.996 0 1.68-.114 2.051-.342.371-.234.566-.635.586-1.201 0-.332-.107-.638-.322-.918a1.362 1.362 0 0 0-.84-.537c-.345-.078-.899-.118-1.66-.118h-2.129v3.116ZM12.613 256.312v-1.376c.742-.007 1.247-.036 1.514-.088.273-.052.53-.209.771-.469.241-.261.362-.586.362-.977 0-.475-.16-.853-.479-1.132-.312-.287-.72-.43-1.22-.43-.99 0-1.683.583-2.08 1.748l-1.67-.274c.52-1.946 1.777-2.919 3.77-2.919 1.106 0 1.972.302 2.597.908.631.605.947 1.328.947 2.168 0 .846-.41 1.52-1.23 2.021.52.28.911.638 1.171 1.074.26.43.391.941.391 1.534 0 .931-.338 1.686-1.016 2.265-.677.58-1.624.869-2.841.869-2.364 0-3.734-1.051-4.112-3.154l1.65-.351c.15.664.453 1.178.909 1.542.462.365.99.547 1.582.547.592 0 1.084-.166 1.475-.498.397-.338.595-.768.595-1.289 0-.403-.123-.755-.37-1.054-.248-.3-.512-.485-.792-.557-.28-.078-.788-.117-1.523-.117-.059 0-.192.003-.4.009Zm7.823-5.683h7.226v8.926h1.123v4.384H27.34V261h-8.164v2.939H17.73v-4.384h.927c1.237-1.68 1.83-4.655 1.777-8.926Zm1.464 1.455c-.13 3.366-.65 5.856-1.562 7.471h5.576v-7.471H21.9Zm8.174 3.73c0-1.92.534-3.343 1.602-4.267.892-.768 1.979-1.152 3.262-1.152 1.425 0 2.59.468 3.496 1.406.905.931 1.357 2.22 1.357 3.867 0 1.335-.202 2.386-.605 3.154a4.225 4.225 0 0 1-1.748 1.778 5.063 5.063 0 0 1-2.5.634c-1.452 0-2.628-.465-3.526-1.396-.892-.931-1.338-2.272-1.338-4.024Zm1.807 0c0 1.329.29 2.325.869 2.989.58.657 1.309.986 2.188.986.872 0 1.598-.332 2.177-.996.58-.664.87-1.676.87-3.037 0-1.283-.294-2.253-.88-2.91-.579-.664-1.302-.996-2.167-.996-.88 0-1.609.328-2.188.986-.58.657-.87 1.65-.87 2.978Zm9.98 9.161v-14.346h1.602v1.348c.377-.528.804-.922 1.28-1.182.474-.267 1.05-.4 1.728-.4.885 0 1.666.227 2.344.683.677.456 1.188 1.1 1.533 1.934.345.827.517 1.735.517 2.724 0 1.062-.192 2.019-.576 2.871-.378.847-.93 1.498-1.66 1.954-.723.449-1.484.673-2.285.673a3.33 3.33 0 0 1-1.582-.371 3.61 3.61 0 0 1-1.143-.937v5.049h-1.758Zm1.592-9.102c0 1.335.27 2.321.81 2.959.541.638 1.195.957 1.964.957.78 0 1.448-.329 2.002-.986.56-.664.84-1.69.84-3.076 0-1.322-.274-2.312-.821-2.969-.54-.658-1.188-.987-1.943-.987-.749 0-1.413.352-1.992 1.055-.573.697-.86 1.712-.86 3.047Zm8.887-.059c0-1.92.534-3.343 1.601-4.267.892-.768 1.98-1.152 3.262-1.152 1.426 0 2.591.468 3.496 1.406.905.931 1.358 2.22 1.358 3.867 0 1.335-.202 2.386-.606 3.154a4.226 4.226 0 0 1-1.748 1.778 5.063 5.063 0 0 1-2.5.634c-1.452 0-2.627-.465-3.525-1.396-.892-.931-1.338-2.272-1.338-4.024Zm1.806 0c0 1.329.29 2.325.87 2.989.58.657 1.308.986 2.187.986.872 0 1.598-.332 2.178-.996.58-.664.869-1.676.869-3.037 0-1.283-.293-2.253-.879-2.91-.58-.664-1.302-.996-2.168-.996-.879 0-1.608.328-2.187.986-.58.657-.87 1.65-.87 2.978Zm9.99-5.185h4.053c.997 0 1.736.085 2.217.254.488.163.905.465 1.25.908.352.443.528.973.528 1.592 0 .495-.105.928-.313 1.299-.202.364-.508.67-.918.918.488.162.892.468 1.211.918.326.442.488.97.488 1.582-.065.983-.416 1.712-1.054 2.187-.638.475-1.566.713-2.784.713h-4.677v-10.371Zm1.758 4.365h1.875c.75 0 1.264-.039 1.543-.117.28-.078.531-.234.752-.469.222-.241.333-.527.333-.859 0-.547-.196-.928-.587-1.143-.384-.215-1.044-.322-1.982-.322h-1.934v2.91Zm0 4.561h2.315c.996 0 1.68-.114 2.05-.342.372-.234.567-.635.587-1.201 0-.332-.108-.638-.323-.918a1.361 1.361 0 0 0-.84-.537c-.345-.078-.898-.118-1.66-.118h-2.129v3.116Zm8.868-7.803-.45-2.676v-2.392h2.002v2.392l-.468 2.676h-1.084Zm11.982-1.123V261h-1.748v-4.043h-1.015c-.619 0-1.081.081-1.387.244-.3.156-.74.667-1.319 1.533L79.742 261h-2.178l1.895-2.793c.58-.853 1.156-1.335 1.728-1.445-1.002-.137-1.748-.498-2.236-1.084a3.093 3.093 0 0 1-.722-2.022c0-.898.315-1.627.947-2.187.638-.56 1.559-.84 2.763-.84h4.805Zm-1.748 1.455h-2.5c-1.048 0-1.725.163-2.031.488-.3.326-.45.707-.45 1.143 0 .618.222 1.074.665 1.367.449.286 1.24.43 2.373.43h1.943v-3.428ZM89.88 261v-2.002h2.002V261c0 .736-.13 1.328-.39 1.777-.261.456-.675.808-1.241 1.055l-.488-.752c.37-.163.644-.404.82-.723.176-.312.274-.765.293-1.357h-.996Zm-73.526 10.684h1.758v4.951a3.626 3.626 0 0 1 1.201-.928 3.225 3.225 0 0 1 1.407-.312c1.23 0 2.203.514 2.92 1.543.722 1.022 1.084 2.311 1.084 3.867 0 1.621-.388 2.933-1.162 3.935-.775.996-1.739 1.494-2.891 1.494-.378 0-.762-.058-1.152-.175-.391-.118-.86-.437-1.407-.957v4.873h-1.758v-4.873c-.351.377-.742.66-1.171.849a3.337 3.337 0 0 1-1.377.283c-1.088 0-2.038-.475-2.852-1.425-.814-.957-1.22-2.325-1.22-4.102 0-1.504.367-2.764 1.103-3.779.736-1.022 1.725-1.533 2.969-1.533.52 0 .992.104 1.416.312.423.202.8.511 1.133.928v-4.951Zm1.749 9.17c0 1.562.214 2.613.644 3.154.43.534.967.801 1.611.801.717 0 1.325-.329 1.827-.987.507-.664.761-1.692.761-3.086 0-1.315-.234-2.295-.703-2.939-.462-.645-1.058-.967-1.787-.967-.781 0-1.37.335-1.767 1.006-.391.671-.586 1.676-.586 3.018Zm-6.582-.196c0 1.465.244 2.52.732 3.164.495.645 1.107.967 1.836.967.762 0 1.331-.319 1.709-.957.377-.644.566-1.608.566-2.891 0-1.367-.198-2.392-.595-3.076-.398-.683-.997-1.025-1.797-1.025-.723 0-1.312.335-1.768 1.006-.456.664-.683 1.601-.683 2.812Zm22.363 2.002 1.816.225c-.286 1.061-.817 1.885-1.592 2.47-.774.586-1.764.879-2.968.879-1.517 0-2.722-.465-3.614-1.396-.885-.938-1.328-2.249-1.328-3.936 0-1.744.45-3.099 1.348-4.062.898-.964 2.064-1.445 3.496-1.445 1.387 0 2.52.472 3.399 1.416.878.944 1.318 2.272 1.318 3.984 0 .104-.003.26-.01.469h-7.734c.065 1.139.387 2.011.966 2.617.58.605 1.303.908 2.168.908.645 0 1.195-.169 1.65-.508.457-.338.818-.879 1.085-1.621Zm-5.772-2.842h5.791c-.078-.872-.3-1.526-.664-1.963-.56-.677-1.285-1.015-2.177-1.015-.808 0-1.488.27-2.041.81-.547.541-.85 1.263-.909 2.168Zm9.805 10.157v-14.346h1.602v1.348c.377-.528.804-.922 1.279-1.182.475-.267 1.051-.4 1.728-.4.886 0 1.667.227 2.344.683.677.456 1.188 1.1 1.533 1.934.345.827.518 1.735.518 2.724 0 1.062-.192 2.019-.576 2.871-.378.847-.931 1.498-1.66 1.954-.723.449-1.485.673-2.286.673a3.33 3.33 0 0 1-1.582-.371 3.61 3.61 0 0 1-1.142-.937v5.049h-1.758Zm1.592-9.102c0 1.335.27 2.321.81 2.959.54.638 1.195.957 1.963.957.782 0 1.449-.329 2.002-.986.56-.664.84-1.69.84-3.076 0-1.322-.273-2.312-.82-2.969-.54-.658-1.188-.987-1.944-.987-.748 0-1.412.352-1.992 1.055-.573.697-.86 1.712-.86 3.047Zm8.144-5.244h8.428v1.455h-3.34V286h-1.748v-8.916h-3.34v-1.455Zm10.108 0h1.758v7.91l4.873-7.91h1.894V286h-1.758v-7.861L59.654 286H57.76v-10.371Zm12.031 0h8.164V286h-1.748v-8.916h-4.658v5.166c0 1.204-.04 1.999-.117 2.383-.079.384-.293.719-.645 1.006-.352.286-.86.429-1.523.429-.41 0-.882-.026-1.416-.078v-1.465h.771c.365 0 .625-.035.781-.107a.593.593 0 0 0 .313-.361c.052-.163.078-.694.078-1.592v-6.836Zm10.791 0h1.758v4.053h2.226c1.452 0 2.569.283 3.35.849.788.56 1.182 1.335 1.182 2.324 0 .866-.33 1.609-.987 2.227-.65.612-1.696.918-3.134.918h-4.395v-10.371Zm1.758 8.926h1.846c1.113 0 1.907-.137 2.382-.41.476-.274.713-.7.713-1.28 0-.449-.175-.849-.527-1.201-.352-.352-1.13-.527-2.334-.527h-2.08v3.418Zm8.71-8.926h1.759v4.316h4.873v-4.316h1.757V286h-1.757v-4.6h-4.873v4.6H91.05v-10.371Zm10.391 5.185c0-1.92.534-3.343 1.602-4.267.892-.768 1.979-1.152 3.262-1.152 1.425 0 2.591.468 3.496 1.406.905.931 1.357 2.22 1.357 3.867 0 1.335-.202 2.386-.605 3.154a4.226 4.226 0 0 1-1.748 1.778 5.064 5.064 0 0 1-2.5.634c-1.452 0-2.627-.465-3.526-1.396-.892-.931-1.338-2.272-1.338-4.024Zm1.807 0c0 1.329.29 2.325.869 2.989.58.657 1.309.986 2.188.986.872 0 1.598-.332 2.177-.996.58-.664.87-1.676.87-3.037 0-1.283-.293-2.253-.879-2.91-.58-.664-1.302-.996-2.168-.996-.879 0-1.608.328-2.188.986-.579.657-.869 1.65-.869 2.978Zm16.748 1.387 1.729.225c-.189 1.191-.674 2.125-1.455 2.803-.775.67-1.729 1.005-2.862 1.005-1.419 0-2.562-.462-3.428-1.386-.859-.931-1.289-2.263-1.289-3.994 0-1.12.186-2.1.557-2.94.371-.84.934-1.468 1.69-1.885a5.021 5.021 0 0 1 2.48-.634c1.126 0 2.047.286 2.764.859.716.566 1.175 1.374 1.377 2.422l-1.709.263c-.163-.696-.453-1.22-.87-1.572-.41-.351-.908-.527-1.494-.527-.885 0-1.604.319-2.158.957-.553.631-.83 1.634-.83 3.008 0 1.393.267 2.405.801 3.037.534.631 1.23.947 2.09.947.69 0 1.266-.212 1.728-.635.462-.423.755-1.074.879-1.953Zm2.285-6.572h8.428v1.455h-3.34V286h-1.748v-8.916h-3.34v-1.455Zm10.117-1.924v-2.021h1.758v2.021h-1.758Zm0 12.295v-10.371h1.758V286h-1.758Zm4.903 0v-2.002h2.002V286c0 .736-.13 1.328-.391 1.777-.26.456-.674.808-1.24 1.055l-.488-.752c.371-.163.644-.404.82-.723.176-.312.273-.765.293-1.357h-.996Zm18.838-10.371V286h-1.748v-4.043h-1.016c-.618 0-1.081.081-1.387.244-.299.156-.739.667-1.318 1.533L149.137 286h-2.178l1.895-2.793c.579-.853 1.155-1.335 1.728-1.445-1.003-.137-1.748-.498-2.236-1.084a3.092 3.092 0 0 1-.723-2.022c0-.898.316-1.627.947-2.187.638-.56 1.56-.84 2.764-.84h4.805Zm-1.748 1.455h-2.5c-1.049 0-1.726.163-2.032.488a1.638 1.638 0 0 0-.449 1.143c0 .618.222 1.074.664 1.367.449.286 1.24.43 2.373.43h1.944v-3.428Zm4.414-1.455h1.757v4.482c.56 0 .951-.107 1.172-.322.228-.215.56-.84.996-1.875.346-.82.625-1.361.84-1.621a1.61 1.61 0 0 1 .742-.527c.28-.092.73-.137 1.348-.137h.352v1.455l-.489-.01c-.462 0-.758.069-.888.205-.137.144-.345.57-.625 1.28-.267.677-.511 1.145-.733 1.406-.221.26-.563.498-1.025.713.755.202 1.497.905 2.227 2.109l1.923 3.213h-1.933l-1.875-3.213c-.384-.644-.72-1.068-1.006-1.269a1.693 1.693 0 0 0-1.026-.313V286h-1.757v-10.371Zm8.759 14.346v-14.346h1.602v1.348c.378-.528.804-.922 1.279-1.182.476-.267 1.052-.4 1.729-.4.885 0 1.666.227 2.344.683.677.456 1.188 1.1 1.533 1.934.345.827.517 1.735.517 2.724 0 1.062-.192 2.019-.576 2.871-.377.847-.931 1.498-1.66 1.954-.723.449-1.484.673-2.285.673a3.33 3.33 0 0 1-1.582-.371 3.62 3.62 0 0 1-1.143-.937v5.049h-1.758Zm1.592-9.102c0 1.335.27 2.321.811 2.959.54.638 1.194.957 1.963.957.781 0 1.448-.329 2.002-.986.56-.664.839-1.69.839-3.076 0-1.322-.273-2.312-.82-2.969-.54-.658-1.188-.987-1.943-.987-.749 0-1.413.352-1.992 1.055-.573.697-.86 1.712-.86 3.047Zm16.309 3.848c-.651.553-1.279.944-1.885 1.172a5.41 5.41 0 0 1-1.934.341c-1.139 0-2.014-.276-2.626-.83-.612-.56-.918-1.272-.918-2.138 0-.508.113-.97.341-1.387.235-.423.537-.762.909-1.016.377-.254.8-.446 1.269-.576.345-.091.866-.179 1.563-.264 1.419-.169 2.464-.371 3.134-.605.007-.241.01-.394.01-.459 0-.716-.166-1.221-.498-1.514-.449-.397-1.116-.595-2.002-.595-.827 0-1.439.146-1.836.439-.39.287-.68.798-.869 1.533l-1.719-.234c.157-.736.414-1.328.772-1.777.358-.456.875-.804 1.553-1.045.677-.248 1.461-.371 2.353-.371.885 0 1.605.104 2.158.312.554.208.961.472 1.221.791.26.313.443.71.547 1.191.058.3.088.84.088 1.622v2.343c0 1.634.036 2.67.107 3.106.078.429.228.843.449 1.24h-1.836a3.734 3.734 0 0 1-.351-1.279Zm-.147-3.926c-.638.26-1.595.482-2.871.664-.722.104-1.233.221-1.533.352a1.513 1.513 0 0 0-.937 1.406c0 .469.175.859.527 1.172.358.312.879.468 1.562.468.677 0 1.28-.146 1.807-.439.527-.3.915-.706 1.162-1.221.189-.397.283-.983.283-1.758v-.644Zm6.573.517v-1.376c.742-.007 1.246-.036 1.513-.088.274-.052.531-.209.772-.469.241-.261.361-.586.361-.977 0-.475-.159-.853-.478-1.132-.313-.287-.72-.43-1.221-.43-.99 0-1.683.583-2.08 1.748l-1.67-.274c.521-1.946 1.777-2.919 3.769-2.919 1.107 0 1.973.302 2.598.908.632.605.947 1.328.947 2.168 0 .846-.41 1.52-1.23 2.021.521.28.911.638 1.172 1.074.26.43.39.941.39 1.534 0 .931-.338 1.686-1.015 2.265-.677.58-1.625.869-2.842.869-2.363 0-3.734-1.051-4.111-3.154l1.65-.351c.15.664.452 1.178.908 1.542.462.365.99.547 1.582.547.593 0 1.084-.166 1.475-.498a1.62 1.62 0 0 0 .596-1.289c0-.403-.124-.755-.372-1.054-.247-.3-.511-.485-.791-.557-.279-.078-.787-.117-1.523-.117-.059 0-.192.003-.4.009ZM2.887 305.844l2.529 4.453H3.99l-3.115-4.453 3.115-4.453h1.446l-2.55 4.453Zm3.779 0 2.578 4.453H7.76l-3.057-4.453 3.057-4.453h1.484l-2.578 4.453ZM13.932 311l-3.174-10.371h1.816l1.65 5.986.616 2.227c.026-.111.205-.824.537-2.139l1.65-6.074h1.807l1.553 6.016.517 1.982.596-2.002 1.777-5.996h1.71L21.743 311h-1.826l-1.65-6.211-.4-1.768-2.1 7.979h-1.836Zm19.306-1.279c-.65.553-1.279.944-1.884 1.172a5.41 5.41 0 0 1-1.934.341c-1.14 0-2.015-.276-2.627-.83-.612-.56-.918-1.272-.918-2.138 0-.508.114-.97.342-1.387.234-.423.537-.762.908-1.016a4.33 4.33 0 0 1 1.27-.576c.345-.091.865-.179 1.562-.264 1.42-.169 2.464-.371 3.135-.605.006-.241.01-.394.01-.459 0-.716-.166-1.221-.498-1.514-.45-.397-1.117-.595-2.002-.595-.827 0-1.44.146-1.836.439-.391.287-.68.798-.87 1.533l-1.718-.234c.156-.736.413-1.328.771-1.777.358-.456.876-.804 1.553-1.045.677-.248 1.462-.371 2.354-.371.885 0 1.604.104 2.158.312.553.208.96.472 1.22.791.26.313.443.71.547 1.191.059.3.088.84.088 1.622v2.343c0 1.634.036 2.67.108 3.106.078.429.227.843.449 1.24H33.59a3.732 3.732 0 0 1-.352-1.279Zm-.146-3.926c-.638.26-1.595.482-2.871.664-.723.104-1.234.221-1.534.352a1.516 1.516 0 0 0-.937 1.406c0 .469.176.859.527 1.172.358.312.88.468 1.563.468.677 0 1.28-.146 1.806-.439.528-.3.915-.706 1.163-1.221.188-.397.283-.983.283-1.758v-.644Zm4.521-7.09v-2.021h1.758v2.021h-1.758Zm0 12.295v-10.371h1.758V311h-1.758Zm3.74-3.096 1.739-.273c.098.696.368 1.23.81 1.601.45.372 1.075.557 1.875.557.808 0 1.407-.163 1.797-.488.39-.332.586-.72.586-1.162 0-.397-.172-.71-.517-.938-.241-.156-.84-.355-1.797-.596-1.29-.325-2.184-.605-2.686-.839-.495-.241-.872-.57-1.133-.987a2.66 2.66 0 0 1-.38-1.396c0-.462.104-.889.312-1.279.215-.398.505-.726.87-.987.273-.202.644-.371 1.112-.508a5.262 5.262 0 0 1 1.524-.214c.814 0 1.526.117 2.138.351.619.234 1.075.553 1.368.957.293.397.495.931.605 1.602l-1.719.234c-.078-.534-.306-.95-.683-1.25-.371-.299-.899-.449-1.582-.449-.807 0-1.384.133-1.729.4-.345.267-.517.58-.517.938 0 .228.071.433.215.615.143.189.367.345.673.469.176.065.694.215 1.553.449 1.244.332 2.11.605 2.598.82.495.209.882.515 1.162.918.28.404.42.905.42 1.504 0 .586-.173 1.139-.518 1.66-.338.515-.83.915-1.474 1.201-.645.28-1.374.42-2.188.42-1.347 0-2.376-.28-3.086-.839-.703-.56-1.152-1.39-1.348-2.491Zm14.541 1.524.254 1.552a6.467 6.467 0 0 1-1.328.157c-.638 0-1.133-.101-1.484-.303-.352-.202-.599-.466-.742-.791-.144-.332-.215-1.025-.215-2.08v-5.967h-1.29v-1.367h1.29v-2.568l1.748-1.055v3.623h1.767v1.367h-1.767v6.065c0 .501.03.823.088.966a.762.762 0 0 0 .303.342c.143.085.345.127.605.127.195 0 .453-.023.772-.068Zm5.567 0 .254 1.552a6.466 6.466 0 0 1-1.328.157c-.638 0-1.133-.101-1.485-.303-.351-.202-.599-.466-.742-.791-.143-.332-.215-1.025-.215-2.08v-5.967h-1.289v-1.367h1.29v-2.568l1.747-1.055v3.623h1.768v1.367h-1.768v6.065c0 .501.03.823.088.966a.763.763 0 0 0 .303.342c.143.085.345.127.605.127.196 0 .453-.023.772-.068Zm1.074-3.614c0-1.92.534-3.343 1.602-4.267.892-.768 1.979-1.152 3.261-1.152 1.426 0 2.592.468 3.496 1.406.905.931 1.358 2.22 1.358 3.867 0 1.335-.202 2.386-.605 3.154a4.226 4.226 0 0 1-1.749 1.778 5.063 5.063 0 0 1-2.5.634c-1.451 0-2.626-.465-3.525-1.396-.892-.931-1.338-2.272-1.338-4.024Zm1.807 0c0 1.329.29 2.325.869 2.989.58.657 1.308.986 2.187.986.873 0 1.599-.332 2.178-.996.58-.664.87-1.676.87-3.037 0-1.283-.294-2.253-.88-2.91-.579-.664-1.302-.996-2.168-.996-.879 0-1.608.328-2.187.986-.58.657-.87 1.65-.87 2.978ZM79.889 311v-14.316h1.758v5.136c.82-.95 1.855-1.425 3.105-1.425.768 0 1.436.153 2.002.459.566.299.97.716 1.21 1.25.248.533.372 1.308.372 2.324V311h-1.758v-6.572c0-.879-.192-1.517-.576-1.914-.378-.404-.915-.606-1.611-.606-.521 0-1.013.137-1.475.41a2.272 2.272 0 0 0-.977 1.094c-.195.462-.292 1.1-.292 1.914V311h-1.758Zm11.142-12.295v-2.021h1.758v2.021h-1.758Zm0 12.295v-10.371h1.758V311h-1.758Zm4.444 3.975v-14.346h1.601v1.348c.378-.528.804-.922 1.28-1.182.475-.267 1.05-.4 1.728-.4.885 0 1.667.227 2.344.683.677.456 1.188 1.1 1.533 1.934.345.827.518 1.735.518 2.724 0 1.062-.193 2.019-.577 2.871-.377.847-.931 1.498-1.66 1.954-.722.449-1.484.673-2.285.673a3.33 3.33 0 0 1-1.582-.371 3.61 3.61 0 0 1-1.143-.937v5.049h-1.757Zm1.591-9.102c0 1.335.27 2.321.811 2.959.54.638 1.195.957 1.963.957.781 0 1.448-.329 2.002-.986.56-.664.84-1.69.84-3.076 0-1.322-.274-2.312-.821-2.969-.54-.658-1.188-.987-1.943-.987-.749 0-1.413.352-1.992 1.055-.573.697-.86 1.712-.86 3.047ZM112.154 311v-10.371h1.582v1.572c.404-.736.775-1.221 1.114-1.455a1.974 1.974 0 0 1 1.132-.351c.593 0 1.195.188 1.807.566l-.605 1.631c-.43-.254-.86-.381-1.289-.381-.385 0-.73.117-1.036.351-.306.228-.524.547-.654.958a6.853 6.853 0 0 0-.293 2.05V311h-1.758Zm13.448-1.279c-.651.553-1.28.944-1.885 1.172a5.414 5.414 0 0 1-1.934.341c-1.139 0-2.015-.276-2.627-.83-.612-.56-.918-1.272-.918-2.138 0-.508.114-.97.342-1.387.234-.423.537-.762.908-1.016a4.334 4.334 0 0 1 1.27-.576c.345-.091.866-.179 1.562-.264 1.42-.169 2.465-.371 3.135-.605.007-.241.01-.394.01-.459 0-.716-.166-1.221-.498-1.514-.449-.397-1.117-.595-2.002-.595-.827 0-1.439.146-1.836.439-.391.287-.68.798-.869 1.533l-1.719-.234c.156-.736.413-1.328.771-1.777.359-.456.876-.804 1.553-1.045.677-.248 1.462-.371 2.354-.371.885 0 1.605.104 2.158.312.553.208.96.472 1.221.791.26.313.442.71.547 1.191.058.3.087.84.087 1.622v2.343c0 1.634.036 2.67.108 3.106.078.429.228.843.449 1.24h-1.836a3.734 3.734 0 0 1-.351-1.279Zm-.147-3.926c-.638.26-1.595.482-2.871.664-.723.104-1.234.221-1.533.352a1.516 1.516 0 0 0-.938 1.406c0 .469.176.859.528 1.172.358.312.879.468 1.562.468.677 0 1.279-.146 1.807-.439.527-.3.914-.706 1.162-1.221.189-.397.283-.983.283-1.758v-.644Zm8.35 3.633.254 1.552a6.474 6.474 0 0 1-1.329.157c-.638 0-1.132-.101-1.484-.303-.351-.202-.599-.466-.742-.791-.143-.332-.215-1.025-.215-2.08v-5.967H129v-1.367h1.289v-2.568l1.748-1.055v3.623h1.768v1.367h-1.768v6.065c0 .501.029.823.088.966a.76.76 0 0 0 .303.342c.143.085.345.127.605.127a5.8 5.8 0 0 0 .772-.068Zm1.738-10.723v-2.021h1.758v2.021h-1.758Zm0 12.295v-10.371h1.758V311h-1.758Zm3.789-5.186c0-1.92.534-3.343 1.602-4.267.892-.768 1.979-1.152 3.261-1.152 1.426 0 2.591.468 3.496 1.406.905.931 1.358 2.22 1.358 3.867 0 1.335-.202 2.386-.606 3.154a4.22 4.22 0 0 1-1.748 1.778 5.061 5.061 0 0 1-2.5.634c-1.452 0-2.627-.465-3.525-1.396-.892-.931-1.338-2.272-1.338-4.024Zm1.807 0c0 1.329.289 2.325.869 2.989.579.657 1.308.986 2.187.986.873 0 1.599-.332 2.178-.996.579-.664.869-1.676.869-3.037 0-1.283-.293-2.253-.879-2.91-.579-.664-1.302-.996-2.168-.996-.879 0-1.608.328-2.187.986-.58.657-.869 1.65-.869 2.978Zm16.386.03-2.548-4.453h1.445l3.115 4.453-3.115 4.453h-1.436l2.539-4.453Zm-3.779 0-2.578-4.453h1.475l3.066 4.453-3.066 4.453h-1.475l2.578-4.453ZM162.75 311v-2.002h2.002V311h-2.002ZM9.662 56.06c0-9.765 2.376-18.017 7.129-24.755 4.785-6.739 11.165-10.108 19.14-10.108 16.635 0 24.952 12.142 24.952 36.426 0 11.36-2.246 20.426-6.739 27.197-4.492 6.771-10.79 10.157-18.896 10.157-8.724 0-15.17-3.125-19.336-9.375-4.167-6.25-6.25-16.097-6.25-29.542Zm13.184.88c0 9.537.927 16.552 2.783 21.044 1.855 4.493 4.931 6.739 9.228 6.739 4.655 0 7.96-2.019 9.913-6.055 1.953-4.069 2.93-11.296 2.93-21.68 0-9.668-.945-16.34-2.833-20.02-1.855-3.678-4.915-5.517-9.18-5.517-8.56 0-12.841 8.496-12.841 25.489Zm47.343 55.322-4.15-5.323c5.957-4.459 8.936-7.958 8.936-10.498 0-.976-.342-1.936-1.026-2.88-3.092-1.498-4.638-3.598-4.638-6.3 0-1.952.813-3.564 2.441-4.833 1.628-1.302 3.646-1.953 6.055-1.953 2.246 0 4.199.862 5.859 2.588 1.693 1.692 2.54 3.662 2.54 5.908 0 4.134-.978 7.894-2.93 11.279-1.921 3.418-6.283 7.422-13.087 12.012ZM117.534 94h-13.916c5.306-16.341 14.421-36.377 27.344-60.107H98.197v-11.72h49.317v5.42l-6.446 12.159a526.337 526.337 0 0 0-6.689 13.476 445.641 445.641 0 0 0-6.836 14.844c-2.214 5.013-4.167 9.717-5.859 14.112-1.693 4.362-3.077 8.3-4.151 11.816Zm55.156 0V42.437l-14.55 8.74V38.972c9.342-4.525 16.731-10.124 22.168-16.797h5.078V94h-12.696Z"/></svg>