<svg xmlns="http://www.w3.org/2000/svg" width="146" height="26" fill="none"><path fill="#F90" d="m13.5 0 3.17 9.954L27 9.931l-8.37 6.13L21.843 26 13.5 19.834 5.157 26l3.213-9.94L0 9.931l10.33.023L13.5 0ZM43.5 0l3.17 9.954L57 9.931l-8.37 6.13L51.843 26 43.5 19.834 35.157 26l3.213-9.94L30 9.931l10.33.023L43.5 0ZM73 0l3.288 9.954L87 9.931l-8.68 6.13L81.653 26 73 19.834 64.347 26l3.333-9.94L59 9.931l10.712.023L73 0Z"/><path fill="#DDD" fill-rule="evenodd" d="M135.671 9.954 132.5 0l-3.171 9.954L119 9.931l8.37 6.13L124.157 26l8.343-6.166L140.843 26l-3.213-9.94L146 9.931l-10.329.023Zm4.666 1.847-5.969.013-1.868-5.865-1.868 5.865-5.969-.013 4.837 3.541-1.88 5.814 4.88-3.606 4.88 3.606-1.88-5.814 4.837-3.541ZM105.671 9.954 102.5 0l-3.17 9.954L89 9.931l8.37 6.13L94.156 26l8.344-6.166L110.843 26l-3.213-9.94L116 9.931l-10.329.023Zm4.666 1.847-5.969.013-1.868-5.865-1.868 5.865-5.969-.013 4.837 3.541-1.88 5.814 4.88-3.606 4.88 3.606-1.88-5.814 4.837-3.541Z" clip-rule="evenodd"/></svg>