<svg aria-hidden="true" style="position: absolute; width: 0; height: 0; overflow: hidden;" version="1.1" xmlns="http://www.w3.org/2000/svg" xmlns:xlink="http://www.w3.org/1999/xlink">
<defs>
<symbol id="icon-offer-line-1" viewBox="0 0 8640 32">
<path stroke-linejoin="miter" stroke-linecap="butt" stroke-miterlimit="4" stroke-width="32" d="M0 16h8640"></path>
</symbol>
<symbol id="icon-akar-icons_chevron-up" viewBox="0 0 32 32">
<path stroke-linejoin="round" stroke-linecap="round" stroke-miterlimit="4" stroke-width="4" d="M26.666 12l-10.666 10.666-10.666-10.666"></path>
</symbol>
<symbol id="icon-facebook-header" viewBox="0 0 32 32">
<path fill="#fff" style="fill: var(--color1, #fff)" d="M16.001 0c-8.838 0-16.001 7.163-16.001 16.001 0 8.836 7.163 15.999 16.001 15.999 8.836 0 15.999-7.163 15.999-15.999 0-8.838-7.163-16.001-15.999-16.001zM22.104 8.147l-2.212 0.002c-1.736 0-2.072 0.825-2.072 2.035v2.668h4.138l-0.002 4.18h-4.137v10.723h-4.316v-10.724h-3.608v-4.178h3.608v-3.082c0-3.576 2.185-5.524 5.376-5.524l3.226 0.005v3.897h-0.002z"></path>
</symbol>
<symbol id="icon-facebook-logo-1" viewBox="0 0 32 32">
<path fill="#4867aa" style="fill: var(--color1, #4867aa)" d="M16.001 0c-8.838 0-16.001 7.163-16.001 16.001 0 8.836 7.163 15.999 16.001 15.999 8.836 0 15.999-7.163 15.999-15.999 0-8.838-7.163-16.001-15.999-16.001zM22.104 8.147l-2.212 0.002c-1.736 0-2.072 0.825-2.072 2.035v2.668h4.138l-0.001 4.18h-4.137v10.722h-4.316v-10.724h-3.608v-4.178h3.608v-3.082c0-3.576 2.185-5.524 5.376-5.524l3.226 0.004v3.897h-0.002z"></path>
</symbol>
<symbol id="icon-logos_telegram-header-1" viewBox="0 0 32 32">
<path fill="#fafafa" style="fill: var(--color1, #fafafa)" d="M16 0c-0.001 0-0.001 0-0.002 0-8.835 0-15.998 7.163-15.998 15.998 0 0.001 0 0.001 0 0.002v-0c0.003 8.835 7.165 15.997 16 16h0c0.001 0 0.001 0 0.002 0 8.835 0 15.998-7.163 15.998-15.998 0-0.001 0-0.001 0-0.002v0c-0.003-8.835-7.165-15.997-16-16h-0z"></path>
<path fill="#008baa" style="fill: var(--color2, #008baa)" d="M7.242 15.831c4.666-2.032 7.776-3.372 9.33-4.019 4.445-1.848 5.368-2.17 5.97-2.18 0.133-0.002 0.428 0.030 0.62 0.186 0.16 0.131 0.206 0.309 0.228 0.434 0.020 0.124 0.047 0.408 0.025 0.63-0.24 2.53-1.282 8.669-1.813 11.503-0.222 1.199-0.665 1.6-1.092 1.64-0.93 0.085-1.635-0.614-2.535-1.204-1.408-0.923-2.203-1.498-3.57-2.398-1.58-1.041-0.555-1.614 0.345-2.549 0.235-0.244 4.33-3.968 4.407-4.306 0.010-0.042 0.020-0.2-0.075-0.283-0.092-0.083-0.23-0.054-0.33-0.032-0.142 0.032-2.39 1.52-6.75 4.46-0.637 0.44-1.215 0.653-1.735 0.642-0.57-0.012-1.67-0.323-2.487-0.589-1-0.325-1.798-0.498-1.728-1.050 0.036-0.289 0.433-0.584 1.19-0.885z"></path>
</symbol>

<symbol id="icon-telegram-logo" viewBox="0 0 36 32">
<path fill="#008baa" style="fill: var(--color1, #008baa)" d="M2.484 13.662c9.33-4.062 15.552-6.742 18.66-8.038 8.892-3.696 10.736-4.34 11.942-4.36 0.266-0.004 0.856 0.060 1.24 0.372 0.32 0.262 0.412 0.618 0.456 0.868 0.040 0.248 0.094 0.816 0.050 1.26-0.48 5.060-2.564 17.338-3.626 23.006-0.444 2.398-1.33 3.2-2.184 3.28-1.86 0.17-3.27-1.228-5.070-2.408-2.814-1.846-4.404-2.996-7.14-4.796-3.16-2.082-1.11-3.228 0.69-5.098 0.47-0.488 8.66-7.936 8.816-8.612 0.020-0.084 0.040-0.4-0.15-0.566-0.186-0.166-0.46-0.108-0.66-0.064-0.286 0.064-4.78 3.040-13.5 8.92-1.276 0.88-2.432 1.306-3.472 1.284-1.14-0.024-3.34-0.646-4.974-1.178-2-0.65-3.596-0.996-3.456-2.1 0.070-0.578 0.866-1.168 2.38-1.77z"></path>
</symbol>
<symbol id="icon-rating" viewBox="0 0 180 32">
<path fill="#f90" style="fill: var(--color1, #f90)" d="M16.615 0l3.902 12.251 12.714-0.028-10.302 7.545 3.954 12.233-10.268-7.589-10.268 7.589 3.954-12.234-10.302-7.543 12.714 0.028 3.902-12.251zM53.538 0l3.902 12.251 12.714-0.028-10.302 7.545 3.954 12.233-10.268-7.589-10.268 7.589 3.954-12.234-10.302-7.543 12.714 0.028 3.902-12.251zM89.846 0l4.047 12.251 13.184-0.028-10.683 7.545 4.102 12.233-10.65-7.589-10.65 7.589 4.102-12.234-10.683-7.543 13.184 0.028 4.047-12.251z"></path>
<path fill="#ddd" style="fill: var(--color2, #ddd)" d="M166.98 12.251l-3.903-12.251-3.903 12.251-12.713-0.028 10.302 7.545-3.954 12.233 10.268-7.589 10.268 7.589-3.954-12.234 10.302-7.543-12.713 0.028zM172.722 14.524l-7.346 0.016-2.299-7.218-2.299 7.218-7.346-0.016 5.953 4.358-2.314 7.156 6.006-4.438 6.006 4.438-2.314-7.156 5.953-4.358zM130.057 12.251l-3.903-12.251-3.902 12.251-12.714-0.028 10.302 7.545-3.956 12.233 10.27-7.589 10.268 7.589-3.954-12.234 10.302-7.543-12.713 0.028zM135.799 14.524l-7.346 0.016-2.299-7.218-2.299 7.218-7.346-0.016 5.953 4.358-2.314 7.156 6.006-4.438 6.006 4.438-2.314-7.156 5.953-4.358z"></path>
</symbol>
<symbol id="icon-article-svg" viewBox="0 0 23 32">
<path fill="#000" style="fill: var(--color1, #000)" d="M1.511 14.846l-0.572-2.154h0.292l0.328 1.412c0.035 0.148 0.066 0.295 0.091 0.441 0.055-0.23 0.087-0.363 0.097-0.398l0.41-1.455h0.344l0.309 1.090c0.077 0.27 0.133 0.525 0.168 0.763 0.027-0.136 0.063-0.292 0.107-0.469l0.338-1.384h0.286l-0.591 2.154h-0.275l-0.454-1.641c-0.038-0.137-0.061-0.221-0.068-0.253-0.027 0.121-0.048 0.206-0.072 0.29l0.009-0.037-0.457 1.641h-0.291zM3.986 14.846v-2.154h0.285v0.885h1.12v-0.885h0.285v2.154h-0.285v-1.015h-1.12v1.015h-0.285zM6.156 14.846v-2.154h0.955c0.192 0 0.338 0.020 0.438 0.059s0.18 0.106 0.24 0.204c0.060 0.098 0.090 0.206 0.090 0.325 0 0.153-0.049 0.282-0.148 0.386s-0.252 0.171-0.458 0.2c0.075 0.036 0.133 0.072 0.172 0.107 0.083 0.076 0.162 0.172 0.237 0.287l0.375 0.586h-0.359l-0.285-0.448c-0.083-0.129-0.152-0.228-0.206-0.297s-0.102-0.117-0.146-0.144c-0.037-0.025-0.080-0.045-0.127-0.057l-0.003-0.001c-0.032-0.007-0.085-0.010-0.159-0.010h-0.331v0.957h-0.285zM6.441 13.643h0.613c0.13 0 0.232-0.013 0.306-0.040s0.129-0.071 0.168-0.129c0.036-0.054 0.057-0.121 0.057-0.193 0-0 0-0.001 0-0.001v0c0-0.102-0.037-0.186-0.112-0.251-0.073-0.066-0.19-0.098-0.35-0.098h-0.682v0.713zM9.476 14.141v-0.207c0.112-0.001 0.188-0.005 0.228-0.013s0.080-0.031 0.116-0.071c0.036-0.039 0.054-0.088 0.054-0.147 0-0.072-0.024-0.128-0.072-0.171s-0.108-0.065-0.184-0.065c-0.149 0-0.253 0.088-0.313 0.263l-0.251-0.041c0.078-0.293 0.267-0.439 0.567-0.439 0.167 0 0.297 0.046 0.391 0.137 0.095 0.091 0.143 0.2 0.143 0.326s-0.062 0.229-0.185 0.304c0.078 0.042 0.137 0.096 0.176 0.162 0.039 0.065 0.059 0.142 0.059 0.231 0 0.14-0.051 0.254-0.153 0.341s-0.244 0.131-0.428 0.131c-0.356 0-0.562-0.158-0.619-0.475l0.248-0.053c0.023 0.1 0.068 0.177 0.137 0.232 0.063 0.051 0.145 0.082 0.234 0.082 0.001 0 0.003 0 0.004-0h-0c0.089 0 0.163-0.025 0.222-0.075 0.055-0.045 0.090-0.113 0.090-0.189 0-0.002-0-0.004-0-0.005v0c0-0.061-0.019-0.114-0.056-0.159s-0.077-0.073-0.119-0.084c-0.042-0.012-0.119-0.018-0.229-0.018-0.009 0-0.029 0.001-0.060 0.002zM10.652 13.286h1.087v1.343h0.169v0.66h-0.217v-0.442h-1.228v0.442h-0.217v-0.66h0.14c0.186-0.253 0.275-0.7 0.267-1.343zM10.873 13.505c-0.020 0.506-0.098 0.881-0.235 1.124h0.839v-1.124h-0.604zM12.103 14.066c0-0.289 0.080-0.503 0.241-0.642 0.134-0.116 0.298-0.173 0.491-0.173 0.215 0 0.39 0.071 0.526 0.212s0.204 0.334 0.204 0.582c0 0.201-0.030 0.359-0.091 0.475-0.060 0.114-0.15 0.206-0.26 0.266l-0.003 0.002c-0.115 0.064-0.24 0.096-0.376 0.096-0.218 0-0.395-0.070-0.53-0.21s-0.201-0.342-0.201-0.605zM12.375 14.066c0 0.2 0.044 0.35 0.131 0.45s0.197 0.148 0.329 0.148c0.131 0 0.241-0.050 0.328-0.15s0.131-0.252 0.131-0.457c0-0.193-0.044-0.339-0.132-0.438-0.087-0.1-0.196-0.15-0.326-0.15-0.132 0-0.242 0.050-0.329 0.148s-0.131 0.248-0.131 0.448zM13.876 15.444v-2.159h0.241v0.203c0.057-0.079 0.121-0.139 0.193-0.178s0.158-0.060 0.26-0.060c0.133 0 0.251 0.034 0.353 0.103s0.179 0.166 0.231 0.291c0.052 0.124 0.078 0.261 0.078 0.41 0 0.16-0.029 0.304-0.087 0.432s-0.14 0.225-0.25 0.294c-0.109 0.068-0.223 0.101-0.344 0.101-0.088 0-0.168-0.019-0.238-0.056-0.068-0.036-0.125-0.083-0.171-0.14l-0.001-0.001v0.76h-0.265zM14.116 14.075c0 0.201 0.041 0.349 0.122 0.445s0.18 0.144 0.295 0.144c0.118 0 0.218-0.050 0.301-0.148 0.084-0.1 0.126-0.254 0.126-0.463 0-0.199-0.041-0.348-0.123-0.447-0.081-0.099-0.179-0.148-0.292-0.148s-0.213 0.053-0.3 0.159c-0.086 0.105-0.129 0.258-0.129 0.459zM15.453 14.066c0-0.289 0.080-0.503 0.241-0.642 0.134-0.116 0.298-0.173 0.491-0.173 0.214 0 0.39 0.071 0.526 0.212s0.204 0.334 0.204 0.582c0 0.201-0.030 0.359-0.091 0.475-0.060 0.114-0.15 0.206-0.26 0.266l-0.003 0.002c-0.115 0.064-0.24 0.096-0.376 0.096-0.218 0-0.395-0.070-0.53-0.21s-0.201-0.342-0.201-0.605zM15.725 14.066c0 0.2 0.044 0.35 0.131 0.45s0.197 0.148 0.329 0.148c0.131 0 0.24-0.050 0.328-0.15s0.131-0.252 0.131-0.457c0-0.193-0.044-0.339-0.132-0.438-0.087-0.1-0.196-0.15-0.326-0.15-0.132 0-0.242 0.050-0.329 0.148s-0.131 0.248-0.131 0.448zM17.228 13.286h0.61c0.15 0 0.261 0.013 0.334 0.038 0.074 0.024 0.136 0.070 0.188 0.137 0.053 0.067 0.079 0.146 0.079 0.239 0 0.074-0.016 0.14-0.047 0.195s-0.076 0.101-0.138 0.138c0.073 0.025 0.134 0.071 0.182 0.138 0.049 0.067 0.074 0.146 0.074 0.238-0.010 0.148-0.063 0.258-0.159 0.329s-0.236 0.107-0.419 0.107h-0.704v-1.561zM17.493 13.943h0.282c0.113 0 0.19-0.006 0.232-0.018s0.080-0.035 0.113-0.071c0.031-0.033 0.050-0.077 0.050-0.126 0-0.001 0-0.002-0-0.003v0c0-0.082-0.029-0.14-0.088-0.172s-0.157-0.048-0.298-0.048h-0.291v0.438zM17.493 14.629h0.348c0.15 0 0.253-0.017 0.309-0.051s0.085-0.095 0.088-0.181c0-0.050-0.016-0.096-0.049-0.138-0.030-0.041-0.074-0.070-0.125-0.081l-0.001-0c-0.052-0.012-0.135-0.018-0.25-0.018h-0.32v0.469zM18.692 14.066c0-0.289 0.080-0.503 0.241-0.642 0.134-0.116 0.298-0.173 0.491-0.173 0.215 0 0.39 0.071 0.526 0.212s0.204 0.334 0.204 0.582c0 0.201-0.030 0.359-0.091 0.475-0.060 0.114-0.15 0.206-0.26 0.266l-0.003 0.002c-0.115 0.064-0.24 0.096-0.376 0.096-0.218 0-0.395-0.070-0.53-0.21s-0.201-0.342-0.201-0.605zM18.964 14.066c0 0.2 0.044 0.35 0.131 0.45s0.197 0.148 0.329 0.148c0.131 0 0.24-0.050 0.328-0.15s0.131-0.252 0.131-0.457c0-0.193-0.044-0.339-0.132-0.438-0.087-0.1-0.196-0.15-0.326-0.15-0.132 0-0.242 0.050-0.329 0.148s-0.131 0.248-0.131 0.448zM20.558 14.846v-1.561h0.264v1.561h-0.264zM20.28 12.98v-0.301h0.276v0.301h-0.276zM20.828 12.98v-0.301h0.276v0.301h-0.276zM1.231 16.396h1.228v1.561h-0.263v-1.342h-0.701v0.777c0 0.181-0.006 0.301-0.018 0.359s-0.044 0.108-0.097 0.151c-0.053 0.043-0.129 0.065-0.229 0.065-0.062 0-0.133-0.004-0.213-0.012v-0.22h0.116c0.055 0 0.094-0.005 0.118-0.016 0.022-0.011 0.039-0.030 0.047-0.054l0-0.001c0.008-0.024 0.012-0.104 0.012-0.24v-1.029zM2.862 16.396h0.264v0.652h0.32c0.024-0.223 0.093-0.394 0.209-0.511 0.117-0.118 0.267-0.176 0.453-0.176 0.158 0 0.282 0.032 0.373 0.096s0.166 0.151 0.225 0.263c0.060 0.112 0.090 0.262 0.090 0.451 0 0.269-0.061 0.474-0.184 0.613s-0.288 0.209-0.498 0.209c-0.195 0-0.351-0.065-0.469-0.194s-0.184-0.307-0.198-0.532h-0.32v0.691h-0.265v-1.561zM4.122 16.585c-0.129 0-0.23 0.050-0.303 0.15-0.072 0.099-0.107 0.238-0.107 0.417 0 0.215 0.036 0.372 0.109 0.472s0.17 0.15 0.291 0.15c0.12 0 0.219-0.046 0.295-0.138 0.077-0.093 0.116-0.242 0.116-0.448 0-0.201-0.033-0.351-0.1-0.451s-0.167-0.151-0.301-0.151zM5.257 16.396h1.087v1.343h0.169v0.66h-0.217v-0.442h-1.228v0.442h-0.217v-0.66h0.14c0.186-0.253 0.275-0.7 0.267-1.343zM5.477 16.615c-0.020 0.506-0.098 0.881-0.235 1.124h0.839v-1.124h-0.604zM6.806 16.396h0.264v1.19l0.733-1.19h0.285v1.561h-0.265v-1.183l-0.733 1.183h-0.285v-1.561zM8.488 16.396h0.265v0.65h0.733v-0.65h0.264v1.561h-0.264v-0.692h-0.733v0.692h-0.265v-1.561zM10.15 16.396h0.264v1.19l0.733-1.19h0.285v1.561h-0.265v-1.183l-0.733 1.183h-0.285v-1.561z"></path>
<path fill="#777" style="fill: var(--color2, #777)" d="M1 20.366c0-0.238 0.064-0.425 0.192-0.559s0.293-0.203 0.496-0.203c0.133 0 0.252 0.032 0.359 0.095 0.105 0.063 0.189 0.154 0.241 0.262l0.002 0.004c0.056 0.113 0.084 0.241 0.084 0.385 0 0.146-0.029 0.276-0.088 0.391s-0.142 0.202-0.25 0.262c-0.099 0.055-0.218 0.088-0.344 0.088-0.002 0-0.003 0-0.005 0h0c-0.135 0-0.256-0.033-0.362-0.098-0.105-0.064-0.188-0.155-0.24-0.264l-0.002-0.004c-0.052-0.104-0.082-0.226-0.082-0.356 0-0.001 0-0.002 0-0.003v0zM1.196 20.369c0 0.173 0.046 0.31 0.139 0.409s0.21 0.149 0.351 0.149c0.143 0 0.26-0.050 0.353-0.151s0.139-0.243 0.139-0.428c0-0.117-0.020-0.219-0.060-0.306s-0.097-0.155-0.173-0.203c-0.076-0.048-0.161-0.072-0.256-0.072-0.135 0-0.25 0.046-0.348 0.139s-0.145 0.246-0.145 0.462zM2.691 20.025h0.725v0.895h0.113v0.44h-0.145v-0.295h-0.819v0.295h-0.145v-0.44h0.093c0.124-0.169 0.184-0.467 0.178-0.895zM2.838 20.171c-0.013 0.338-0.065 0.587-0.157 0.749h0.559v-0.749h-0.403zM3.723 20.025h0.176v0.793l0.489-0.793h0.19v1.040h-0.176v-0.789l-0.489 0.789h-0.19v-1.040zM4.845 20.025h0.176v0.433h0.489v-0.433h0.176v1.040h-0.176v-0.461h-0.489v0.461h-0.176v-1.040zM6.512 19.832v-0.203h0.176v0.203h-0.176zM6.512 21.066v-1.040h0.176v1.040h-0.176zM7.188 20.596v-0.138c0.074-0.001 0.125-0.004 0.152-0.009s0.053-0.021 0.077-0.047c0.024-0.026 0.036-0.059 0.036-0.098 0-0.048-0.016-0.086-0.048-0.114s-0.072-0.043-0.122-0.043c-0.099 0-0.169 0.058-0.209 0.175l-0.168-0.027c0.052-0.195 0.178-0.293 0.378-0.293 0.111 0 0.198 0.030 0.261 0.091s0.095 0.133 0.095 0.217c0 0.085-0.041 0.152-0.123 0.203 0.052 0.028 0.091 0.064 0.117 0.108s0.039 0.094 0.039 0.154c0 0.093-0.034 0.169-0.102 0.227s-0.163 0.087-0.285 0.087c-0.237 0-0.375-0.105-0.412-0.316l0.166-0.035c0.015 0.067 0.045 0.118 0.091 0.155s0.099 0.055 0.159 0.055 0.109-0.017 0.148-0.050c0.037-0.030 0.060-0.075 0.060-0.126 0-0.001 0-0.002-0-0.004v0c0-0.040-0.012-0.076-0.037-0.106s-0.051-0.049-0.079-0.056c-0.028-0.008-0.079-0.012-0.153-0.012-0.006 0-0.019 0-0.040 0.001zM8.438 20.025h0.407c0.1 0 0.174 0.009 0.222 0.025s0.091 0.047 0.125 0.091c0.035 0.044 0.053 0.098 0.053 0.16 0 0.050-0.010 0.093-0.031 0.13s-0.051 0.067-0.092 0.092c0.049 0.016 0.089 0.047 0.121 0.092s0.049 0.097 0.049 0.159c-0.007 0.099-0.042 0.172-0.106 0.219s-0.157 0.072-0.279 0.072h-0.469v-1.040zM8.614 20.463h0.188c0.075 0 0.127-0.004 0.155-0.012s0.053-0.023 0.075-0.047c0.022-0.024 0.033-0.053 0.033-0.086 0-0.055-0.020-0.093-0.059-0.115s-0.105-0.032-0.199-0.032h-0.194v0.292zM8.614 20.921h0.232c0.1 0 0.169-0.011 0.206-0.034s0.057-0.064 0.059-0.12c0-0.033-0.011-0.064-0.032-0.092-0.020-0.027-0.049-0.047-0.083-0.054l-0.001-0c-0.035-0.008-0.090-0.012-0.167-0.012h-0.214v0.313zM10.192 20.731l0.182 0.023c-0.029 0.106-0.082 0.189-0.16 0.248s-0.177 0.088-0.298 0.088c-0.152 0-0.273-0.047-0.362-0.14s-0.133-0.226-0.133-0.395c0-0.175 0.045-0.311 0.135-0.407s0.207-0.145 0.351-0.145c0.139 0 0.253 0.047 0.341 0.142s0.132 0.228 0.132 0.4c0 0.010-0 0.026-0.001 0.047h-0.776c0.007 0.114 0.039 0.202 0.097 0.263s0.131 0.091 0.217 0.091c0.065 0 0.12-0.017 0.166-0.051s0.082-0.088 0.109-0.163zM9.613 20.446h0.581c-0.008-0.087-0.030-0.153-0.067-0.197-0.056-0.068-0.129-0.102-0.218-0.102-0.081 0-0.149 0.027-0.205 0.081s-0.085 0.127-0.091 0.217zM10.616 20.025h0.819v1.040h-0.175v-0.894h-0.467v0.518c0 0.121-0.004 0.201-0.012 0.239s-0.029 0.072-0.065 0.101c-0.035 0.029-0.086 0.043-0.153 0.043-0.041 0-0.088-0.003-0.142-0.008v-0.147h0.077c0.037 0 0.063-0.003 0.078-0.011s0.026-0.020 0.031-0.036l0-0c0.005-0.016 0.008-0.070 0.008-0.16v-0.686zM11.698 20.025h0.176v0.407h0.223c0.146 0 0.258 0.028 0.336 0.085s0.119 0.134 0.119 0.233c0 0.087-0.033 0.161-0.099 0.223s-0.17 0.092-0.314 0.092h-0.441v-1.040zM11.875 20.921h0.185c0.112 0 0.191-0.014 0.239-0.041s0.071-0.070 0.071-0.128c0-0.045-0.018-0.085-0.053-0.12s-0.113-0.053-0.234-0.053h-0.209v0.343zM12.752 20.025h0.274l0.273 0.833 0.304-0.833h0.254v1.040h-0.176v-0.838l-0.308 0.838h-0.158l-0.291-0.878v0.878h-0.172v-1.040zM14.127 20.025h0.176v0.793l0.489-0.793h0.19v1.040h-0.176v-0.789l-0.489 0.789h-0.19v-1.040zM1.036 22.533h0.176v0.433h0.489v-0.433h0.176v1.040h-0.176v-0.461h-0.489v0.461h-0.176v-1.040zM2.823 23.445c-0.065 0.055-0.128 0.095-0.189 0.118-0.056 0.022-0.122 0.034-0.19 0.034-0.002 0-0.003 0-0.005-0h0c-0.114 0-0.202-0.028-0.264-0.083s-0.092-0.128-0.092-0.214c0-0.051 0.011-0.097 0.034-0.139s0.054-0.076 0.091-0.102c0.038-0.025 0.080-0.045 0.127-0.058 0.035-0.009 0.087-0.018 0.157-0.026 0.142-0.017 0.247-0.037 0.314-0.061 0.001-0.024 0.001-0.040 0.001-0.046 0-0.072-0.017-0.122-0.050-0.152-0.045-0.040-0.112-0.060-0.201-0.060-0.083 0-0.144 0.015-0.184 0.044s-0.068 0.080-0.087 0.154l-0.172-0.023c0.016-0.074 0.042-0.133 0.077-0.178s0.088-0.081 0.156-0.105c0.068-0.025 0.147-0.037 0.236-0.037s0.161 0.010 0.216 0.031 0.096 0.047 0.122 0.079c0.026 0.031 0.044 0.071 0.055 0.119 0.006 0.030 0.009 0.084 0.009 0.163v0.235c0 0.164 0.004 0.268 0.011 0.312s0.023 0.085 0.045 0.124h-0.184c-0.018-0.037-0.031-0.081-0.035-0.127l-0-0.001zM2.808 23.052c-0.064 0.026-0.16 0.048-0.288 0.067-0.073 0.010-0.124 0.022-0.154 0.035-0.056 0.023-0.094 0.078-0.094 0.141 0 0 0 0 0 0v-0c0 0.047 0.018 0.086 0.053 0.118s0.088 0.047 0.157 0.047c0.068 0 0.128-0.015 0.181-0.044s0.092-0.071 0.117-0.122c0.019-0.040 0.028-0.099 0.028-0.176v-0.065zM3.4 22.533h0.725v0.895h0.113v0.44h-0.145v-0.295h-0.819v0.295h-0.145v-0.44h0.093c0.124-0.169 0.184-0.467 0.178-0.895zM3.547 22.679c-0.013 0.338-0.065 0.587-0.157 0.749h0.559v-0.749h-0.403zM4.433 22.34v-0.203h0.176v0.203h-0.176zM4.433 23.574v-1.040h0.176v1.040h-0.176zM4.879 22.533h0.176v0.793l0.489-0.793h0.19v1.040h-0.176v-0.789l-0.489 0.789h-0.19v-1.040zM5.491 22.14h0.12c-0.010 0.082-0.040 0.144-0.090 0.188s-0.116 0.066-0.199 0.066c-0.084 0-0.15-0.021-0.201-0.065s-0.079-0.107-0.089-0.189h0.12c0.009 0.044 0.027 0.078 0.054 0.1s0.064 0.032 0.11 0.032c0.053 0 0.093-0.010 0.119-0.031s0.046-0.055 0.055-0.101zM6.001 22.533h0.176v0.433h0.489v-0.433h0.176v1.040h-0.176v-0.461h-0.489v0.461h-0.176v-1.040zM7.109 22.533h0.176v0.793l0.489-0.793h0.19v1.040h-0.176v-0.789l-0.489 0.789h-0.19v-1.040zM8.112 23.574l0.38-0.541-0.352-0.5h0.22l0.16 0.244c0.030 0.046 0.054 0.085 0.073 0.117 0.029-0.043 0.055-0.081 0.079-0.115l0.175-0.246h0.211l-0.36 0.49 0.387 0.551h-0.216l-0.214-0.323-0.057-0.087-0.273 0.41h-0.214zM9.792 22.533h0.821v1.040h-0.176v-0.894h-0.468v0.894h-0.176v-1.040zM10.813 23.053c0-0.193 0.054-0.335 0.161-0.428 0.089-0.077 0.199-0.116 0.327-0.116 0.143 0 0.26 0.047 0.351 0.141s0.136 0.223 0.136 0.388c0 0.134-0.020 0.239-0.061 0.316s-0.1 0.137-0.173 0.177l-0.002 0.001c-0.071 0.040-0.156 0.064-0.246 0.064-0.002 0-0.003 0-0.005-0h0c-0.146 0-0.264-0.047-0.354-0.14s-0.134-0.228-0.134-0.404zM10.994 23.053c0 0.133 0.029 0.233 0.087 0.3s0.131 0.099 0.219 0.099c0.088 0 0.16-0.033 0.218-0.1s0.087-0.168 0.087-0.305c0-0.129-0.029-0.226-0.088-0.292s-0.131-0.1-0.217-0.1c-0.088 0-0.161 0.033-0.219 0.099s-0.087 0.166-0.087 0.299zM11.994 22.533h0.176v0.45c0.056 0 0.095-0.011 0.118-0.032s0.056-0.084 0.1-0.188c0.035-0.082 0.063-0.137 0.084-0.163s0.046-0.044 0.074-0.053c0.028-0.009 0.073-0.014 0.135-0.014h0.035v0.146l-0.049-0.001c-0.046 0-0.076 0.007-0.089 0.021s-0.035 0.057-0.063 0.128c-0.027 0.068-0.051 0.115-0.073 0.141s-0.056 0.050-0.103 0.072c0.076 0.020 0.15 0.091 0.223 0.212l0.193 0.322h-0.194l-0.188-0.322c-0.039-0.065-0.072-0.107-0.101-0.127-0.027-0.020-0.062-0.031-0.099-0.031-0.002 0-0.003 0-0.005 0h0v0.481h-0.176v-1.040zM13.597 23.445c-0.065 0.055-0.128 0.095-0.189 0.118-0.056 0.022-0.122 0.034-0.19 0.034-0.002 0-0.003 0-0.005-0h0c-0.114 0-0.202-0.028-0.264-0.083s-0.092-0.128-0.092-0.214c0-0.051 0.011-0.097 0.034-0.139s0.054-0.076 0.091-0.102c0.038-0.025 0.080-0.045 0.127-0.058 0.035-0.009 0.087-0.018 0.157-0.026 0.142-0.017 0.247-0.037 0.314-0.061 0.001-0.024 0.001-0.040 0.001-0.046 0-0.072-0.017-0.122-0.050-0.152-0.045-0.040-0.112-0.060-0.201-0.060-0.083 0-0.144 0.015-0.184 0.044s-0.068 0.080-0.087 0.154l-0.172-0.023c0.016-0.074 0.042-0.133 0.077-0.178s0.088-0.081 0.156-0.105c0.068-0.025 0.147-0.037 0.236-0.037s0.161 0.010 0.216 0.031c0.056 0.021 0.096 0.047 0.122 0.079s0.044 0.071 0.055 0.119c0.006 0.030 0.009 0.084 0.009 0.163v0.235c0 0.164 0.004 0.268 0.011 0.312s0.023 0.085 0.045 0.124h-0.184c-0.018-0.037-0.031-0.081-0.035-0.127l-0-0.001zM13.582 23.052c-0.064 0.026-0.16 0.048-0.288 0.067-0.072 0.010-0.124 0.022-0.154 0.035-0.056 0.023-0.094 0.078-0.094 0.141 0 0 0 0 0 0v-0c0 0.047 0.018 0.086 0.053 0.118s0.088 0.047 0.157 0.047c0.068 0 0.128-0.015 0.181-0.044s0.092-0.071 0.117-0.122c0.019-0.040 0.028-0.099 0.028-0.176v-0.065zM14.241 23.103v-0.138c0.074-0.001 0.125-0.004 0.152-0.009s0.053-0.021 0.077-0.047c0.024-0.026 0.036-0.059 0.036-0.098 0-0.048-0.016-0.086-0.048-0.114s-0.072-0.043-0.122-0.043c-0.099 0-0.169 0.058-0.209 0.175l-0.168-0.027c0.052-0.195 0.178-0.293 0.378-0.293 0.111 0 0.198 0.030 0.261 0.091s0.095 0.133 0.095 0.217c0 0.085-0.041 0.152-0.123 0.203 0.052 0.028 0.091 0.064 0.118 0.108s0.039 0.094 0.039 0.154c0 0.093-0.034 0.169-0.102 0.227s-0.163 0.087-0.285 0.087c-0.237 0-0.375-0.105-0.412-0.316l0.166-0.035c0.015 0.067 0.045 0.118 0.091 0.155s0.099 0.055 0.159 0.055c0.059 0 0.109-0.017 0.148-0.050 0.037-0.030 0.060-0.075 0.060-0.126 0-0.001 0-0.002-0-0.004v0c0-0.040-0.012-0.076-0.037-0.106s-0.051-0.049-0.079-0.056c-0.028-0.008-0.079-0.012-0.153-0.012-0.006 0-0.019 0-0.040 0.001zM14.933 22.533h0.176v0.433h0.489v-0.433h0.176v1.040h-0.176v-0.461h-0.489v0.461h-0.176v-1.040zM16.041 22.533h0.176v0.793l0.489-0.793h0.19v1.040h-0.176v-0.789l-0.489 0.789h-0.19v-1.040zM17.161 22.533h0.176v0.45c0.056 0 0.095-0.011 0.118-0.032s0.056-0.084 0.1-0.188c0.035-0.082 0.063-0.137 0.084-0.163s0.046-0.044 0.074-0.053c0.028-0.009 0.073-0.014 0.135-0.014h0.035v0.146l-0.049-0.001c-0.046 0-0.076 0.007-0.089 0.021s-0.035 0.057-0.063 0.128c-0.027 0.068-0.051 0.115-0.073 0.141s-0.056 0.050-0.103 0.072c0.076 0.020 0.15 0.091 0.223 0.212l0.193 0.322h-0.194l-0.188-0.322c-0.039-0.065-0.072-0.107-0.101-0.127-0.027-0.020-0.062-0.031-0.099-0.031-0.002 0-0.003 0-0.005 0h0v0.481h-0.176v-1.040zM18.040 22.34v-0.203h0.176v0.203h-0.176zM18.040 23.574v-1.040h0.176v1.040h-0.176zM18.487 22.533h0.407c0.1 0 0.174 0.009 0.222 0.025s0.091 0.047 0.125 0.091c0.035 0.044 0.053 0.098 0.053 0.16 0 0.050-0.010 0.093-0.031 0.13s-0.051 0.067-0.092 0.092c0.049 0.016 0.089 0.047 0.121 0.092s0.049 0.097 0.049 0.159c-0.007 0.099-0.042 0.172-0.106 0.219s-0.157 0.072-0.279 0.072h-0.469v-1.040zM18.663 22.971h0.188c0.075 0 0.127-0.004 0.155-0.012s0.053-0.023 0.075-0.047c0.022-0.024 0.033-0.053 0.033-0.086 0-0.055-0.020-0.093-0.059-0.115s-0.105-0.032-0.199-0.032h-0.194v0.292zM18.663 23.429h0.232c0.1 0 0.169-0.011 0.206-0.034s0.057-0.064 0.059-0.12c0-0.033-0.011-0.064-0.032-0.092-0.020-0.027-0.049-0.047-0.083-0.054l-0.001-0c-0.035-0.008-0.090-0.012-0.167-0.012h-0.214v0.313zM1.265 25.712v-0.138c0.074-0.001 0.125-0.004 0.152-0.009s0.053-0.021 0.077-0.047c0.024-0.026 0.036-0.059 0.036-0.098 0-0.048-0.016-0.086-0.048-0.114s-0.072-0.043-0.122-0.043c-0.099 0-0.169 0.058-0.209 0.175l-0.168-0.027c0.052-0.195 0.178-0.293 0.378-0.293 0.111 0 0.198 0.030 0.26 0.091s0.095 0.133 0.095 0.217c0 0.085-0.041 0.152-0.123 0.203 0.052 0.028 0.091 0.064 0.117 0.108s0.039 0.094 0.039 0.154c0 0.093-0.034 0.169-0.102 0.227s-0.163 0.087-0.285 0.087c-0.237 0-0.375-0.105-0.412-0.316l0.166-0.035c0.015 0.067 0.045 0.118 0.091 0.155s0.099 0.055 0.159 0.055 0.109-0.017 0.148-0.050c0.040-0.034 0.060-0.077 0.060-0.129 0-0.040-0.012-0.076-0.037-0.106s-0.051-0.049-0.079-0.056c-0.028-0.008-0.079-0.012-0.153-0.012-0.006 0-0.019 0-0.040 0.001zM2.050 25.141h0.725v0.895h0.113v0.44h-0.145v-0.295h-0.819v0.295h-0.145v-0.44h0.093c0.124-0.169 0.184-0.467 0.178-0.895zM2.197 25.287c-0.013 0.338-0.065 0.587-0.157 0.749h0.559v-0.749h-0.403zM3.017 25.662c0-0.193 0.054-0.335 0.161-0.428 0.089-0.077 0.199-0.116 0.327-0.116 0.143 0 0.26 0.047 0.351 0.141s0.136 0.223 0.136 0.388c0 0.134-0.020 0.239-0.061 0.316s-0.1 0.137-0.173 0.177l-0.002 0.001c-0.071 0.040-0.156 0.064-0.246 0.064-0.002 0-0.003 0-0.005-0h0c-0.146 0-0.264-0.047-0.354-0.14s-0.134-0.228-0.134-0.404zM3.198 25.662c0 0.133 0.029 0.233 0.087 0.3s0.131 0.099 0.22 0.099c0.087 0 0.16-0.033 0.218-0.1s0.087-0.168 0.087-0.305c0-0.129-0.030-0.226-0.088-0.292s-0.131-0.1-0.217-0.1c-0.088 0-0.161 0.033-0.22 0.099s-0.087 0.166-0.087 0.299zM4.199 26.581v-1.439h0.161v0.135c0.038-0.053 0.081-0.093 0.128-0.119s0.105-0.040 0.173-0.040c0.089 0 0.167 0.023 0.235 0.069s0.119 0.11 0.154 0.194c0.035 0.083 0.052 0.174 0.052 0.273 0 0.107-0.019 0.203-0.058 0.288s-0.093 0.15-0.167 0.196c-0.073 0.045-0.149 0.067-0.229 0.067-0.002 0-0.003 0-0.005 0-0.056 0-0.109-0.014-0.155-0.038l0.002 0.001c-0.045-0.024-0.083-0.055-0.114-0.093l-0.001-0.001v0.506h-0.176zM4.359 25.668c0 0.134 0.027 0.233 0.081 0.297s0.12 0.096 0.197 0.096c0.078 0 0.145-0.033 0.201-0.099s0.084-0.17 0.084-0.309c0-0.133-0.027-0.232-0.082-0.298s-0.119-0.099-0.195-0.099c-0.075 0-0.142 0.035-0.2 0.106s-0.086 0.172-0.086 0.306zM5.25 25.662c0-0.193 0.054-0.335 0.161-0.428 0.089-0.077 0.199-0.116 0.327-0.116 0.143 0 0.26 0.047 0.351 0.141s0.136 0.223 0.136 0.388c0 0.134-0.020 0.239-0.061 0.316s-0.1 0.137-0.173 0.177l-0.002 0.001c-0.071 0.040-0.156 0.064-0.246 0.064-0.002 0-0.003 0-0.005-0h0c-0.146 0-0.264-0.047-0.354-0.14s-0.134-0.228-0.134-0.404zM5.432 25.662c0 0.133 0.029 0.233 0.087 0.3s0.131 0.099 0.219 0.099c0.087 0 0.16-0.033 0.218-0.1s0.087-0.168 0.087-0.305c0-0.129-0.029-0.226-0.088-0.292s-0.131-0.1-0.217-0.1c-0.088 0-0.161 0.033-0.219 0.099s-0.087 0.166-0.087 0.299zM6.434 25.141h0.407c0.1 0 0.174 0.009 0.222 0.025s0.091 0.047 0.125 0.091c0.035 0.044 0.053 0.098 0.053 0.16 0 0.050-0.011 0.093-0.031 0.13s-0.051 0.067-0.092 0.092c0.049 0.016 0.089 0.047 0.121 0.092s0.049 0.097 0.049 0.159c-0.007 0.099-0.042 0.172-0.106 0.219s-0.157 0.072-0.279 0.072h-0.469v-1.040zM6.61 25.579h0.188c0.075 0 0.127-0.004 0.155-0.012s0.053-0.023 0.075-0.047c0.022-0.024 0.033-0.053 0.033-0.086 0-0.055-0.020-0.093-0.059-0.115s-0.105-0.032-0.199-0.032h-0.194v0.292zM6.61 26.037h0.232c0.1 0 0.169-0.011 0.206-0.034s0.057-0.064 0.059-0.12c0-0.033-0.011-0.064-0.032-0.092-0.020-0.027-0.049-0.047-0.083-0.054l-0.001-0c-0.035-0.008-0.090-0.012-0.167-0.012h-0.214v0.313zM7.5 25.254l-0.045-0.268v-0.24h0.201v0.24l-0.047 0.268h-0.109zM8.702 25.141v1.040h-0.175v-0.406h-0.102c-0.062 0-0.108 0.008-0.139 0.024s-0.074 0.067-0.132 0.154l-0.154 0.227h-0.218l0.19-0.28c0.058-0.086 0.116-0.134 0.173-0.145-0.101-0.014-0.175-0.050-0.224-0.109-0.045-0.053-0.072-0.123-0.072-0.199 0-0.001 0-0.003 0-0.004v0c0-0.090 0.032-0.163 0.095-0.219s0.156-0.084 0.277-0.084h0.482zM8.526 25.287h-0.251c-0.105 0-0.173 0.016-0.204 0.049s-0.045 0.071-0.045 0.115c0 0.062 0.022 0.108 0.067 0.137s0.124 0.043 0.238 0.043h0.195v-0.344zM9.016 26.182v-0.201h0.201v0.201c0 0.074-0.013 0.133-0.039 0.178s-0.068 0.081-0.124 0.106l-0.049-0.075c0.037-0.016 0.065-0.041 0.082-0.073s0.027-0.077 0.029-0.136h-0.1zM1.641 27.254h0.176v0.497c0.033-0.039 0.073-0.070 0.118-0.092l0.002-0.001c0.041-0.020 0.088-0.031 0.139-0.031 0.001 0 0.002 0 0.002 0h-0c0.123 0 0.221 0.052 0.293 0.155s0.109 0.232 0.109 0.388c0 0.163-0.039 0.294-0.117 0.395s-0.174 0.15-0.29 0.15c-0.038 0-0.076-0.006-0.116-0.018s-0.086-0.044-0.141-0.096v0.489h-0.176v-0.489c-0.035 0.038-0.074 0.066-0.117 0.085-0.040 0.018-0.086 0.028-0.135 0.028-0.001 0-0.002 0-0.003-0h0c-0.109 0-0.204-0.048-0.286-0.143s-0.122-0.233-0.122-0.412c0-0.151 0.037-0.277 0.111-0.379s0.173-0.154 0.298-0.154c0.052 0 0.099 0.010 0.142 0.031s0.080 0.051 0.114 0.093v-0.497zM1.816 28.173c0 0.157 0.021 0.262 0.065 0.316s0.097 0.080 0.162 0.080c0.072 0 0.133-0.033 0.183-0.099s0.076-0.17 0.076-0.31c0-0.132-0.023-0.23-0.071-0.295s-0.106-0.097-0.179-0.097c-0.078 0-0.137 0.034-0.177 0.101s-0.059 0.168-0.059 0.303zM1.156 28.154c0 0.147 0.024 0.253 0.073 0.317s0.111 0.097 0.184 0.097c0.076 0 0.134-0.032 0.171-0.096s0.057-0.161 0.057-0.29c0-0.137-0.020-0.24-0.060-0.309s-0.1-0.103-0.18-0.103c-0.073 0-0.132 0.034-0.177 0.101s-0.069 0.161-0.069 0.282zM3.399 28.355l0.182 0.023c-0.029 0.106-0.082 0.189-0.16 0.248s-0.177 0.088-0.298 0.088c-0.152 0-0.273-0.047-0.363-0.14s-0.133-0.226-0.133-0.395c0-0.175 0.045-0.311 0.135-0.407s0.207-0.145 0.351-0.145c0.139 0 0.253 0.047 0.341 0.142s0.132 0.228 0.132 0.4c0 0.010-0 0.026-0.001 0.047h-0.776c0.007 0.114 0.039 0.202 0.097 0.263s0.131 0.091 0.217 0.091c0.065 0 0.12-0.017 0.166-0.051s0.082-0.088 0.109-0.163zM2.82 28.070h0.581c-0.008-0.087-0.030-0.153-0.067-0.197-0.056-0.068-0.129-0.102-0.218-0.102-0.081 0-0.149 0.027-0.205 0.081s-0.085 0.127-0.091 0.217zM3.804 29.088v-1.439h0.161v0.135c0.038-0.053 0.081-0.093 0.128-0.119s0.105-0.040 0.173-0.040c0.089 0 0.167 0.023 0.235 0.069s0.119 0.11 0.154 0.194c0.035 0.083 0.052 0.174 0.052 0.273 0 0.107-0.019 0.203-0.058 0.288s-0.093 0.15-0.167 0.196c-0.073 0.045-0.149 0.067-0.229 0.067-0.002 0-0.003 0-0.005 0-0.056 0-0.109-0.014-0.155-0.038l0.002 0.001c-0.045-0.024-0.083-0.055-0.114-0.093l-0.001-0.001v0.506h-0.176zM3.963 28.175c0 0.134 0.027 0.233 0.081 0.297s0.12 0.096 0.197 0.096c0.078 0 0.145-0.033 0.201-0.099s0.084-0.17 0.084-0.309c0-0.133-0.027-0.232-0.082-0.298s-0.119-0.099-0.195-0.099c-0.075 0-0.142 0.035-0.2 0.106s-0.086 0.172-0.086 0.306zM4.78 27.649h0.845v0.146h-0.335v0.894h-0.175v-0.894h-0.335v-0.146zM5.794 27.649h0.176v0.793l0.489-0.793h0.19v1.040h-0.176v-0.789l-0.489 0.789h-0.19v-1.040zM7.001 27.649h0.819v1.040h-0.175v-0.894h-0.467v0.518c0 0.121-0.004 0.201-0.012 0.239s-0.029 0.072-0.065 0.101c-0.035 0.029-0.086 0.043-0.153 0.043-0.041 0-0.088-0.003-0.142-0.008v-0.147h0.077c0.037 0 0.063-0.003 0.078-0.011s0.026-0.020 0.031-0.036l0-0c0.005-0.016 0.008-0.070 0.008-0.16v-0.686zM8.084 27.649h0.176v0.407h0.223c0.146 0 0.258 0.028 0.336 0.085s0.119 0.134 0.119 0.233c0 0.087-0.033 0.161-0.099 0.223s-0.17 0.092-0.314 0.092h-0.441v-1.040zM8.26 28.545h0.185c0.112 0 0.191-0.014 0.239-0.041s0.072-0.070 0.072-0.128c0-0.045-0.018-0.085-0.053-0.12s-0.113-0.053-0.234-0.053h-0.209v0.343zM9.134 27.649h0.176v0.433h0.489v-0.433h0.176v1.040h-0.176v-0.461h-0.489v0.461h-0.177v-1.040zM10.176 28.169c0-0.193 0.054-0.335 0.161-0.428 0.089-0.077 0.199-0.116 0.327-0.116 0.143 0 0.26 0.047 0.351 0.141s0.136 0.223 0.136 0.388c0 0.134-0.020 0.239-0.061 0.316s-0.1 0.137-0.173 0.177l-0.002 0.001c-0.071 0.040-0.156 0.064-0.246 0.064-0.002 0-0.003 0-0.005-0h0c-0.146 0-0.264-0.047-0.354-0.14s-0.134-0.228-0.134-0.404zM10.357 28.169c0 0.133 0.029 0.233 0.087 0.3s0.131 0.099 0.22 0.099c0.087 0 0.16-0.033 0.218-0.1s0.087-0.168 0.087-0.305c0-0.129-0.029-0.226-0.088-0.292s-0.131-0.1-0.217-0.1c-0.088 0-0.161 0.033-0.22 0.099s-0.087 0.166-0.087 0.299zM12.037 28.309l0.173 0.023c-0.019 0.119-0.068 0.213-0.146 0.281s-0.173 0.101-0.287 0.101c-0.142 0-0.257-0.046-0.344-0.139s-0.129-0.227-0.129-0.401c0-0.112 0.019-0.211 0.056-0.295s0.094-0.147 0.17-0.189c0.071-0.040 0.155-0.064 0.245-0.064 0.001 0 0.003 0 0.004 0h-0c0.113 0 0.205 0.029 0.277 0.086s0.118 0.138 0.138 0.243l-0.171 0.026c-0.016-0.070-0.045-0.122-0.087-0.158s-0.091-0.053-0.15-0.053c-0.089 0-0.161 0.032-0.216 0.096s-0.083 0.164-0.083 0.302c0 0.14 0.027 0.241 0.080 0.305s0.123 0.095 0.21 0.095c0.069 0 0.127-0.021 0.173-0.064s0.076-0.108 0.088-0.196zM12.267 27.649h0.845v0.146h-0.335v0.894h-0.175v-0.894h-0.335v-0.146zM13.281 27.456v-0.203h0.176v0.203h-0.176zM13.281 28.69v-1.040h0.176v1.040h-0.176zM13.773 28.69v-0.201h0.201v0.201c0 0.074-0.013 0.133-0.039 0.178s-0.068 0.081-0.124 0.106l-0.049-0.075c0.037-0.016 0.065-0.041 0.082-0.073s0.027-0.077 0.029-0.136h-0.1zM15.663 27.649v1.040h-0.175v-0.406h-0.102c-0.062 0-0.108 0.008-0.139 0.024s-0.074 0.067-0.132 0.154l-0.154 0.227h-0.218l0.19-0.28c0.058-0.086 0.116-0.134 0.173-0.145-0.101-0.014-0.175-0.050-0.224-0.109-0.045-0.053-0.073-0.123-0.073-0.199 0-0.001 0-0.002 0-0.004v0c0-0.090 0.032-0.163 0.095-0.219s0.156-0.084 0.277-0.084h0.482zM15.488 27.795h-0.251c-0.105 0-0.173 0.016-0.204 0.049-0.028 0.029-0.045 0.069-0.045 0.113 0 0.001 0 0.001 0 0.002v-0c0 0.062 0.022 0.108 0.067 0.137s0.124 0.043 0.238 0.043h0.195v-0.344zM15.93 27.649h0.176v0.45c0.056 0 0.095-0.011 0.118-0.032s0.056-0.084 0.1-0.188c0.035-0.082 0.063-0.137 0.084-0.163 0.019-0.024 0.044-0.042 0.073-0.053l0.001-0c0.028-0.009 0.073-0.014 0.135-0.014h0.035v0.146l-0.049-0.001c-0.046 0-0.076 0.007-0.089 0.021s-0.035 0.057-0.063 0.128c-0.027 0.068-0.051 0.115-0.074 0.141s-0.056 0.050-0.103 0.072c0.076 0.020 0.15 0.091 0.223 0.212l0.193 0.322h-0.194l-0.188-0.322c-0.039-0.065-0.072-0.107-0.101-0.127-0.027-0.020-0.062-0.031-0.098-0.031-0.002 0-0.003 0-0.005 0h0v0.481h-0.176v-1.040zM16.809 29.088v-1.439h0.161v0.135c0.038-0.053 0.081-0.093 0.128-0.119s0.106-0.040 0.173-0.040c0.089 0 0.167 0.023 0.235 0.069s0.119 0.11 0.154 0.194c0.035 0.083 0.052 0.174 0.052 0.273 0 0.107-0.019 0.203-0.058 0.288s-0.093 0.15-0.167 0.196c-0.073 0.045-0.149 0.067-0.229 0.067-0.002 0-0.003 0-0.005 0-0.056 0-0.109-0.014-0.155-0.038l0.002 0.001c-0.045-0.024-0.083-0.055-0.114-0.093l-0.001-0.001v0.506h-0.176zM16.969 28.175c0 0.134 0.027 0.233 0.081 0.297s0.12 0.096 0.197 0.096c0.078 0 0.145-0.033 0.201-0.099s0.084-0.17 0.084-0.309c0-0.133-0.027-0.232-0.082-0.298s-0.119-0.099-0.195-0.099c-0.075 0-0.142 0.035-0.2 0.106s-0.086 0.172-0.086 0.306zM18.605 28.561c-0.065 0.055-0.128 0.095-0.189 0.118-0.056 0.022-0.122 0.034-0.19 0.034-0.002 0-0.003 0-0.005-0h0c-0.114 0-0.202-0.028-0.263-0.083s-0.092-0.128-0.092-0.214c0-0.051 0.011-0.097 0.034-0.139s0.054-0.076 0.091-0.102c0.038-0.025 0.080-0.045 0.127-0.058 0.035-0.009 0.087-0.018 0.157-0.026 0.142-0.017 0.247-0.037 0.314-0.061 0.001-0.024 0.001-0.040 0.001-0.046 0-0.072-0.017-0.122-0.050-0.152-0.045-0.040-0.112-0.060-0.201-0.060-0.083 0-0.144 0.015-0.184 0.044s-0.068 0.080-0.087 0.154l-0.172-0.023c0.016-0.074 0.042-0.133 0.077-0.178s0.088-0.081 0.156-0.105c0.068-0.025 0.147-0.037 0.236-0.037s0.161 0.010 0.216 0.031c0.056 0.021 0.096 0.047 0.122 0.079s0.044 0.071 0.055 0.119c0.006 0.030 0.009 0.084 0.009 0.163v0.235c0 0.164 0.004 0.268 0.011 0.312s0.023 0.085 0.045 0.124h-0.184c-0.018-0.037-0.031-0.081-0.035-0.127l-0-0.001zM18.59 28.168c-0.064 0.026-0.16 0.048-0.288 0.067-0.072 0.010-0.124 0.022-0.154 0.035-0.056 0.023-0.094 0.077-0.094 0.14 0 0 0 0 0 0.001v-0c0 0.047 0.018 0.086 0.053 0.118s0.088 0.047 0.157 0.047c0.068 0 0.128-0.015 0.181-0.044s0.092-0.071 0.117-0.122c0.019-0.040 0.028-0.099 0.028-0.176v-0.065zM19.249 28.219v-0.138c0.074-0.001 0.125-0.004 0.152-0.009s0.053-0.021 0.077-0.047c0.024-0.026 0.036-0.059 0.036-0.098 0-0.048-0.016-0.086-0.048-0.114s-0.072-0.043-0.122-0.043c-0.099 0-0.169 0.058-0.209 0.175l-0.168-0.027c0.052-0.195 0.178-0.293 0.378-0.293 0.111 0 0.198 0.030 0.261 0.091s0.095 0.133 0.095 0.217c0 0.085-0.041 0.152-0.123 0.203 0.052 0.028 0.091 0.064 0.118 0.108s0.039 0.094 0.039 0.154c0 0.093-0.034 0.169-0.102 0.227s-0.163 0.087-0.285 0.087c-0.237 0-0.375-0.105-0.412-0.316l0.166-0.035c0.015 0.067 0.045 0.118 0.091 0.155s0.099 0.055 0.159 0.055c0.059 0 0.109-0.017 0.148-0.050 0.037-0.030 0.060-0.075 0.060-0.126 0-0.001 0-0.002-0-0.004v0c0-0.040-0.012-0.076-0.037-0.106s-0.051-0.049-0.079-0.056c-0.028-0.008-0.079-0.012-0.153-0.012-0.006 0-0.019 0-0.040 0.001zM0.29 30.68l0.254 0.447h-0.143l-0.312-0.447 0.312-0.447h0.145l-0.256 0.447zM0.669 30.68l0.259 0.447h-0.149l-0.307-0.447 0.307-0.447h0.149l-0.259 0.447zM1.398 31.198l-0.318-1.040h0.182l0.166 0.6 0.062 0.223c0.003-0.011 0.021-0.083 0.054-0.215l0.166-0.609h0.181l0.156 0.604 0.052 0.199 0.060-0.201 0.178-0.601h0.172l-0.325 1.040h-0.183l-0.166-0.623-0.040-0.177-0.211 0.8h-0.184zM3.334 31.069c-0.065 0.055-0.128 0.095-0.189 0.118-0.056 0.022-0.122 0.034-0.19 0.034-0.002 0-0.003 0-0.005-0h0c-0.114 0-0.202-0.028-0.264-0.083s-0.092-0.128-0.092-0.214c0-0.051 0.011-0.097 0.034-0.139s0.054-0.076 0.091-0.102c0.037-0.025 0.079-0.044 0.124-0.057l0.003-0.001c0.035-0.009 0.087-0.018 0.157-0.026 0.142-0.017 0.247-0.037 0.314-0.061 0.001-0.024 0.001-0.040 0.001-0.046 0-0.072-0.017-0.122-0.050-0.152-0.045-0.040-0.112-0.060-0.201-0.060-0.083 0-0.144 0.015-0.184 0.044s-0.068 0.080-0.087 0.154l-0.172-0.023c0.016-0.074 0.041-0.133 0.077-0.178s0.088-0.081 0.156-0.105c0.068-0.025 0.147-0.037 0.236-0.037s0.161 0.010 0.216 0.031c0.055 0.021 0.096 0.047 0.122 0.079s0.044 0.071 0.055 0.119c0.006 0.030 0.009 0.084 0.009 0.163v0.235c0 0.164 0.004 0.268 0.011 0.312s0.023 0.085 0.045 0.124h-0.184c-0.018-0.037-0.031-0.081-0.035-0.127l-0-0.001zM3.32 30.675c-0.064 0.026-0.16 0.048-0.288 0.067-0.073 0.010-0.124 0.022-0.154 0.035-0.056 0.023-0.094 0.078-0.094 0.141 0 0 0 0 0 0.001v-0c0 0.047 0.018 0.086 0.053 0.118s0.088 0.047 0.157 0.047c0.068 0 0.128-0.015 0.181-0.044s0.092-0.071 0.117-0.122c0.019-0.040 0.028-0.099 0.028-0.176v-0.065zM3.773 29.964v-0.203h0.176v0.203h-0.176zM3.773 31.198v-1.040h0.176v1.040h-0.176zM4.148 30.887l0.174-0.027c0.010 0.070 0.037 0.123 0.081 0.161s0.108 0.056 0.188 0.056c0.081 0 0.141-0.016 0.18-0.049s0.059-0.072 0.059-0.117c0-0.040-0.017-0.071-0.052-0.094-0.024-0.016-0.084-0.036-0.18-0.060-0.129-0.033-0.219-0.061-0.269-0.084s-0.087-0.057-0.114-0.099c-0.024-0.039-0.038-0.087-0.038-0.137 0-0.001 0-0.002 0-0.003v0c0-0.046 0.010-0.089 0.031-0.128s0.051-0.073 0.087-0.099c0.027-0.020 0.065-0.037 0.112-0.051 0.045-0.014 0.096-0.021 0.149-0.021 0.001 0 0.003 0 0.004 0h-0c0.082 0 0.153 0.012 0.214 0.035s0.108 0.055 0.137 0.096c0.029 0.040 0.050 0.093 0.061 0.161l-0.172 0.023c-0.008-0.054-0.031-0.095-0.069-0.125s-0.090-0.045-0.159-0.045c-0.081 0-0.139 0.013-0.173 0.040s-0.052 0.058-0.052 0.094c0 0.023 0.007 0.043 0.022 0.062s0.037 0.035 0.067 0.047c0.018 0.007 0.070 0.022 0.156 0.045 0.125 0.033 0.212 0.061 0.261 0.082s0.088 0.052 0.117 0.092c0.028 0.041 0.042 0.091 0.042 0.151 0 0.059-0.017 0.114-0.052 0.167s-0.083 0.092-0.148 0.12c-0.065 0.028-0.138 0.042-0.22 0.042-0.135 0-0.238-0.028-0.31-0.084s-0.116-0.139-0.135-0.25zM5.607 31.040l0.025 0.156c-0.040 0.009-0.086 0.015-0.133 0.016h-0c-0.064 0-0.114-0.010-0.149-0.030s-0.060-0.047-0.074-0.079c-0.014-0.033-0.022-0.103-0.022-0.209v-0.599h-0.129v-0.137h0.129v-0.258l0.175-0.106v0.363h0.177v0.137h-0.177v0.608c0 0.050 0.003 0.083 0.009 0.097s0.017 0.026 0.030 0.034l0 0c0.014 0.009 0.035 0.013 0.061 0.013 0.020 0 0.045-0.002 0.077-0.007zM6.165 31.040l0.025 0.156c-0.040 0.009-0.086 0.015-0.133 0.016h-0c-0.064 0-0.114-0.010-0.149-0.030s-0.060-0.047-0.074-0.079c-0.014-0.033-0.022-0.103-0.022-0.209v-0.599h-0.129v-0.137h0.129v-0.258l0.175-0.106v0.363h0.177v0.137h-0.177v0.608c0 0.050 0.003 0.083 0.009 0.097s0.017 0.026 0.030 0.034l0 0c0.014 0.009 0.035 0.013 0.061 0.013 0.020 0 0.045-0.002 0.077-0.007zM6.273 30.677c0-0.193 0.054-0.335 0.161-0.428 0.089-0.077 0.199-0.116 0.327-0.116 0.143 0 0.26 0.047 0.351 0.141s0.136 0.223 0.136 0.388c0 0.134-0.020 0.239-0.061 0.316s-0.1 0.137-0.173 0.177l-0.002 0.001c-0.071 0.040-0.156 0.064-0.246 0.064-0.002 0-0.003 0-0.005-0h0c-0.146 0-0.263-0.047-0.354-0.14s-0.134-0.228-0.134-0.404zM6.454 30.677c0 0.133 0.029 0.233 0.087 0.3s0.131 0.099 0.219 0.099c0.088 0 0.16-0.033 0.218-0.1s0.087-0.168 0.087-0.305c0-0.129-0.029-0.226-0.088-0.292s-0.131-0.1-0.217-0.1c-0.088 0-0.161 0.033-0.219 0.099s-0.087 0.166-0.087 0.299zM8.014 31.198v-1.436h0.176v0.515c0.082-0.095 0.186-0.143 0.311-0.143 0.077 0 0.144 0.015 0.201 0.046s0.097 0.072 0.121 0.125c0.025 0.053 0.037 0.131 0.037 0.233v0.659h-0.176v-0.659c0-0.088-0.019-0.152-0.058-0.192s-0.092-0.061-0.162-0.061c-0.052 0-0.102 0.014-0.148 0.041-0.044 0.025-0.078 0.063-0.097 0.108l-0.001 0.001c-0.020 0.046-0.029 0.11-0.029 0.192v0.569h-0.176zM9.132 29.964v-0.203h0.176v0.203h-0.176zM9.132 31.198v-1.040h0.176v1.040h-0.176zM9.577 31.596v-1.439h0.161v0.135c0.038-0.053 0.081-0.093 0.128-0.119s0.105-0.040 0.173-0.040c0.089 0 0.167 0.023 0.235 0.069s0.119 0.11 0.154 0.194c0.035 0.083 0.052 0.174 0.052 0.273 0 0.107-0.019 0.203-0.058 0.288s-0.093 0.15-0.167 0.196c-0.072 0.045-0.149 0.067-0.229 0.067-0.002 0-0.004 0-0.005 0-0.056 0-0.109-0.014-0.155-0.038l0.002 0.001c-0.045-0.024-0.083-0.055-0.114-0.093l-0.001-0.001v0.506h-0.176zM9.737 30.683c0 0.134 0.027 0.233 0.081 0.297s0.12 0.096 0.197 0.096c0.078 0 0.145-0.033 0.201-0.099s0.084-0.17 0.084-0.309c0-0.133-0.027-0.232-0.082-0.298s-0.119-0.099-0.195-0.099c-0.075 0-0.142 0.035-0.2 0.106s-0.086 0.172-0.086 0.306zM11.251 31.198v-1.040h0.159v0.158c0.041-0.074 0.078-0.122 0.112-0.146 0.031-0.022 0.071-0.035 0.113-0.035 0 0 0.001 0 0.001 0h-0c0.059 0 0.12 0.019 0.181 0.057l-0.061 0.164c-0.043-0.025-0.086-0.038-0.129-0.038-0.039 0-0.073 0.012-0.104 0.035s-0.053 0.055-0.066 0.096c-0.019 0.060-0.029 0.128-0.029 0.199 0 0.002 0 0.005 0 0.007v-0 0.545h-0.176zM12.6 31.069c-0.065 0.055-0.128 0.095-0.189 0.118-0.056 0.022-0.122 0.034-0.19 0.034-0.002 0-0.003 0-0.005-0h0c-0.114 0-0.202-0.028-0.264-0.083s-0.092-0.128-0.092-0.214c0-0.051 0.011-0.097 0.034-0.139s0.054-0.076 0.091-0.102c0.037-0.025 0.079-0.044 0.124-0.057l0.003-0.001c0.035-0.009 0.087-0.018 0.157-0.026 0.142-0.017 0.247-0.037 0.314-0.061 0.001-0.024 0.001-0.040 0.001-0.046 0-0.072-0.017-0.122-0.050-0.152-0.045-0.040-0.112-0.060-0.201-0.060-0.083 0-0.144 0.015-0.184 0.044s-0.068 0.080-0.087 0.154l-0.172-0.023c0.016-0.074 0.041-0.133 0.077-0.178s0.088-0.081 0.156-0.105c0.068-0.025 0.147-0.037 0.236-0.037s0.161 0.010 0.216 0.031 0.096 0.047 0.122 0.079c0.026 0.031 0.044 0.071 0.055 0.119 0.006 0.030 0.009 0.084 0.009 0.163v0.235c0 0.164 0.004 0.268 0.011 0.312s0.023 0.085 0.045 0.124h-0.184c-0.018-0.037-0.031-0.081-0.035-0.127l-0-0.001zM12.585 30.675c-0.064 0.026-0.16 0.048-0.288 0.067-0.073 0.010-0.124 0.022-0.154 0.035-0.056 0.023-0.094 0.078-0.094 0.141 0 0 0 0 0 0v-0c0 0.047 0.018 0.086 0.053 0.118s0.088 0.047 0.157 0.047c0.068 0 0.128-0.015 0.181-0.044s0.092-0.071 0.117-0.122c0.019-0.040 0.028-0.099 0.028-0.176v-0.065zM13.422 31.040l0.025 0.156c-0.040 0.009-0.086 0.015-0.133 0.016h-0c-0.064 0-0.114-0.010-0.149-0.030s-0.060-0.047-0.074-0.079c-0.014-0.033-0.022-0.103-0.022-0.209v-0.599h-0.129v-0.137h0.129v-0.258l0.175-0.106v0.363h0.177v0.137h-0.177v0.608c0 0.050 0.003 0.083 0.009 0.097s0.017 0.026 0.030 0.034l0 0c0.014 0.009 0.035 0.013 0.061 0.013 0.028-0.001 0.055-0.003 0.081-0.007l-0.003 0zM13.597 29.964v-0.203h0.176v0.203h-0.176zM13.597 31.198v-1.040h0.176v1.040h-0.176zM13.977 30.677c0-0.193 0.054-0.335 0.161-0.428 0.089-0.077 0.199-0.116 0.327-0.116 0.143 0 0.26 0.047 0.351 0.141s0.136 0.223 0.136 0.388c0 0.134-0.020 0.239-0.061 0.316s-0.1 0.137-0.173 0.177l-0.002 0.001c-0.071 0.040-0.156 0.064-0.246 0.064-0.002 0-0.003 0-0.005-0h0c-0.146 0-0.264-0.047-0.354-0.14s-0.134-0.228-0.134-0.404zM14.158 30.677c0 0.133 0.029 0.233 0.087 0.3s0.131 0.099 0.219 0.099c0.088 0 0.16-0.033 0.218-0.1s0.087-0.168 0.087-0.305c0-0.129-0.029-0.226-0.088-0.292s-0.131-0.1-0.217-0.1c-0.088 0-0.161 0.033-0.219 0.099s-0.087 0.166-0.087 0.299zM15.802 30.68l-0.256-0.447h0.145l0.312 0.447-0.312 0.447h-0.144l0.255-0.447zM15.423 30.68l-0.259-0.447h0.148l0.308 0.447-0.308 0.447h-0.148l0.259-0.447zM16.326 31.198v-0.201h0.201v0.201h-0.201zM0.969 5.624c0-0.98 0.238-1.807 0.715-2.483 0.48-0.676 1.12-1.014 1.92-1.014 1.669 0 2.503 1.218 2.503 3.654 0 1.14-0.225 2.049-0.676 2.728s-1.082 1.019-1.896 1.019c-0.875 0-1.522-0.313-1.94-0.94s-0.627-1.615-0.627-2.963zM2.292 5.712c0 0.957 0.093 1.66 0.279 2.111s0.495 0.676 0.926 0.676c0.467 0 0.798-0.203 0.994-0.607 0.196-0.408 0.294-1.133 0.294-2.175 0-0.97-0.095-1.639-0.284-2.008-0.186-0.369-0.493-0.553-0.921-0.553-0.859 0-1.288 0.852-1.288 2.557zM7.041 11.261l-0.416-0.534c0.598-0.447 0.896-0.798 0.896-1.053 0-0.098-0.034-0.194-0.103-0.289-0.31-0.15-0.465-0.361-0.465-0.632 0-0.196 0.082-0.358 0.245-0.485 0.163-0.131 0.366-0.196 0.607-0.196 0.225 0 0.421 0.086 0.588 0.26 0.17 0.17 0.255 0.367 0.255 0.593 0 0.415-0.098 0.792-0.294 1.131-0.193 0.343-0.63 0.745-1.313 1.205zM11.79 9.429h-1.396c0.532-1.639 1.447-3.649 2.743-6.030h-3.287v-1.176h4.947v0.544l-0.647 1.22c-0.091 0.149-0.315 0.592-0.533 1.039l-0.138 0.313c-0.122 0.222-0.351 0.711-0.572 1.206l-0.113 0.284c-0.222 0.503-0.418 0.975-0.588 1.416-0.17 0.438-0.309 0.833-0.416 1.185zM17.323 9.429v-5.172l-1.46 0.877v-1.224c0.937-0.454 1.678-1.016 2.224-1.685h0.509v7.205h-1.274z"></path>
</symbol>
</defs>
</svg>
