<svg xmlns="http://www.w3.org/2000/svg" width="18" height="16" fill="none"><path fill="#008BAA" d="M1.242 6.831C5.907 4.8 9.018 3.46 10.572 2.812 15.018.964 15.94.642 16.543.632c.133-.002.428.03.62.186.16.131.206.309.228.434.02.124.047.408.025.63-.24 2.53-1.282 8.669-1.813 11.503-.222 1.199-.665 1.6-1.092 1.64-.93.085-1.635-.614-2.535-1.204-1.407-.923-2.202-1.498-3.57-2.398-1.58-1.041-.555-1.614.345-2.549.235-.244 4.33-3.968 4.408-4.306.01-.042.02-.2-.075-.283-.093-.083-.23-.054-.33-.032-.143.032-2.39 1.52-6.75 4.46-.638.44-1.216.653-1.736.642-.57-.012-1.67-.323-2.487-.589-1-.325-1.798-.498-1.728-1.05.035-.289.433-.584 1.19-.885Z"/></svg>